<?xml version="1.0" standalone="no"?>
<!DOCTYPE svg PUBLIC "-//W3C//DTD SVG 1.1//EN" "http://www.w3.org/Graphics/SVG/1.1/DTD/svg11.dtd" >
<svg>
<metadata>
Created by FontForge 20120731 at Thu Feb 28 13:24:32 2019
 By www-data
Copyright 1993-2001 Payne Loving Trust.All rights reserved. By law this program may not be copied for others or modified.
</metadata>
<defs>
<font id="TranslitLSBold" horiz-adv-x="500" >
  <font-face 
    font-family="TranslitLS"
    font-weight="700"
    font-stretch="normal"
    units-per-em="1000"
    panose-1="0 0 7 0 0 0 0 0 0 0"
    ascent="800"
    descent="-200"
    x-height="458"
    cap-height="681"
    bbox="-550 -337 985 932"
    underline-thickness="48"
    underline-position="-61"
    unicode-range="U+0020-E004"
  />
<missing-glyph 
d="M63 0v800h375v-800h-375zM125 63h250v675h-250v-675z" />
    <glyph glyph-name=".notdef" 
d="M63 0v800h375v-800h-375zM125 63h250v675h-250v-675z" />
    <glyph glyph-name="glyph1" horiz-adv-x="0" 
 />
    <glyph glyph-name="glyph2" horiz-adv-x="250" 
 />
    <glyph glyph-name="space" unicode=" " horiz-adv-x="250" 
 />
    <glyph glyph-name="exclam" unicode="!" horiz-adv-x="333" 
d="M152 224q0 89 -33.5 202.5t-33.5 162.5q0 43 21 75q23 36 60 36t60 -36q21 -32 21 -75q0 -49 -33.5 -162.5t-33.5 -202.5h-28zM164 140q30 0 52.5 -21.5t22.5 -51.5q0 -31 -21 -52.5t-52 -21.5t-52 21.5t-21 52.5t20 52t51 21z" />
    <glyph glyph-name="quotedbl" unicode="&#x22;" horiz-adv-x="555" 
d="M425 614l-45 -243h-46l-45 243q-4 24 17.5 50t50.5 26t51 -25.5t17 -50.5zM203 614l-45 -243h-46l-45 243q-4 24 17.5 50t50.5 26t51 -25.5t17 -50.5z" />
    <glyph glyph-name="numbersign" unicode="#" horiz-adv-x="444" 
d="M30 183v43h249v3q0 85 -37 130q-35 42 -95 42q-67 0 -109 -42l-17 21q64 94 176 94q99 0 162 -71t63 -174q0 -101 -62 -173t-146 -72q-81 0 -134 60q-50 57 -50 139zM214 17q65 0 65 166h-130q0 -166 65 -166z" />
    <glyph glyph-name="dollar" unicode="$" horiz-adv-x="667" 
d="M631 681v-207h-21q-8 27 -15 55q-15 44 -34 64q-51 54 -142 54h-10v-545q0 -25 13 -46q20 -35 69 -35v-21h-323v21q49 0 70 35q12 21 12 46v545h-10q-91 0 -142 -54q-19 -20 -33 -64q-8 -28 -16 -55h-21v207h603zM391 -128q0 -26 -18 -44.5t-44 -18.5t-44 18.5t-18 44.5
t18 44t44 18t44 -18t18 -44z" />
    <glyph glyph-name="percent" unicode="%" horiz-adv-x="1" 
d="M-92 618v-70h-319v70h319zM-114 836q0 -25 -25 -42q-35 -25 -85 -54q-67 -38 -88 -51l-66 -1q61 62 163 170q24 25 51 25q19 0 34.5 -13.5t15.5 -33.5z" />
    <glyph glyph-name="ampersand" unicode="&#x26;" horiz-adv-x="278" 
d="M204 72q0 -51 42 -51v-21h-216v21q42 0 42 51v314q0 51 -42 51v21h174v-386zM278 618v-70h-285v70h285zM270 836q0 -25 -25 -42q-35 -25 -85 -54q-67 -38 -88 -51l-66 -1q61 62 163 170q24 25 51 25q19 0 34.5 -13.5t15.5 -33.5z" />
    <glyph glyph-name="quotesingle" unicode="'" horiz-adv-x="278" 
d="M205 614l-45 -243h-46l-45 243q-4 24 17.5 50t50.5 26t51 -25.5t17 -50.5z" />
    <glyph glyph-name="parenleft" unicode="(" horiz-adv-x="335" 
d="M302 719v-30q-86 -39 -120 -161q-24 -88 -24 -243q0 -153 24 -241q34 -121 120 -164v-29q-120 66 -186 178t-66 257t67 259t185 174z" />
    <glyph glyph-name="parenright" unicode=")" horiz-adv-x="335" 
d="M33 719q118 -60 185 -174t67 -259t-66 -257t-186 -178v29q86 43 120 164q24 88 24 241q0 155 -24 243q-34 122 -120 161v30z" />
    <glyph glyph-name="asterisk" unicode="*" horiz-adv-x="278" 
d="M204 72q0 -51 42 -51v-21h-216v21q42 0 42 51v314q0 51 -42 51v21h174v-386zM266 670q0 -25 -25 -42q-35 -25 -85 -54q-67 -38 -88 -51l-66 -1q61 62 163 170q24 25 51 25q19 0 34.5 -13.5t15.5 -33.5z" />
    <glyph glyph-name="plus" unicode="+" horiz-adv-x="778" 
d="M664 36q-31 -21 -106 -37q-81 -16 -170 -16q-146 0 -245 104t-99 250t99 250t245 104q56 0 101 -14q78 -24 98 -28q15 -3 25.5 11.5t19.5 29.5h23v-230h-23q-29 75 -75 126q-72 79 -169 79q-101 0 -147 -122q-31 -84 -31 -206q0 -130 34 -213q47 -115 144 -115
q117 0 117 59v141q0 25 -12 46q-21 35 -70 35v21h323v-21q-49 0 -69 -35q-13 -21 -13 -46v-173zM529 888q1 -68 -39.5 -113t-101.5 -45q-62 0 -105 45.5t-42 112.5h47q4 -32 36 -50q28 -17 65 -17q35 0 62 17.5t31 49.5h47z" />
    <glyph glyph-name="comma" unicode="," horiz-adv-x="250" 
d="M126 130q76 0 76 -95q0 -67 -31 -120.5t-100 -83.5v18q15 10 27 20q29 26 39 51q12 31 12 47q0 18 -14 18h-5l-4 -1q-30 0 -51.5 21t-21.5 52t21.5 52t51.5 21z" />
    <glyph glyph-name="hyphen" unicode="-" horiz-adv-x="333" 
d="M46 172v111h237v-111h-237z" />
    <glyph glyph-name="hyphen" unicode="&#x2010;" horiz-adv-x="333" 
d="M46 172v111h237v-111h-237z" />
    <glyph glyph-name="period" unicode="." horiz-adv-x="250" 
d="M124 130q30 0 52.5 -21.5t22.5 -51.5q0 -31 -21 -52.5t-52 -21.5t-52 21.5t-21 52.5t20 52t51 21z" />
    <glyph glyph-name="slash" unicode="/" horiz-adv-x="278" 
d="M225 752h57l-222 -768h-57z" />
    <glyph glyph-name="zero" unicode="0" 
d="M250 686q107 0 167 -104q54 -95 54 -248q0 -152 -54 -247q-60 -104 -167 -104q-108 0 -167 104q-54 94 -54 247t54 248q59 104 167 104zM183 334q0 -199 8 -249q12 -72 59 -72t59 72q8 50 8 249q0 200 -8 250q-12 72 -59 72t-59 -72q-8 -50 -8 -250z" />
    <glyph glyph-name="one" unicode="1" 
d="M320 102q0 -81 112 -81v-21h-364v21q112 0 112 81v379q0 70 -13.5 83.5t-32.5 13.5q-15 0 -58 -13v22l232 104h12v-589z" />
    <glyph glyph-name="two" unicode="2" 
d="M34 18q123 144 202 324q92 211 -6 236q-26 7 -49 7q-52 0 -86 -35q-18 -26 -36 -51l-25 12q41 89 92.5 129.5t126.5 40.5q69 0 112 -39q46 -43 46 -119q0 -75 -64 -172q-39 -60 -179 -229h158q47 0 65.5 17.5t44.5 79.5h24l-49 -219h-377v18z" />
    <glyph glyph-name="three" unicode="3" 
d="M277 430q18 26 18 63q0 68 -51 85q-26 9 -51 9q-48 0 -88 -36q-10 -10 -42 -52l-24 12q78 170 229 170q68 0 111 -37q47 -39 47 -109q0 -75 -90 -120q126 -54 126 -183q0 -15 -2 -30q-11 -92 -84 -154q-80 -68 -200 -68q-56 0 -100 20q-48 23 -52 62q-2 22 12.5 41
t38.5 19q50 0 101.5 -47.5t80.5 -47.5q11 0 24 4q30 10 52 42.5t25 74.5q5 77 -62 135q-61 53 -144 64v14q92 22 125 69z" />
    <glyph glyph-name="four" unicode="4" 
d="M332 681h71v-425h66v-107h-66v-149h-136v149h-244v107zM67 256h200v280z" />
    <glyph glyph-name="five" unicode="5" 
d="M54 347l110 334h292l-49 -122h-243l-26 -79h40q134 0 203 -64q65 -59 65 -165q0 -116 -60 -182q-63 -69 -180 -69q-146 0 -152 62q-2 22 12.5 41t38.5 19q30 0 86 -38t90 -38q15 0 30 5q60 19 60 104q0 192 -244 192h-73z" />
    <glyph glyph-name="six" unicode="6" 
d="M202 398q33 23 88 23q87 0 135 -65q41 -57 41 -147q0 -83 -55 -150q-63 -75 -161 -75q-99 0 -160 80q-56 71 -56 165q0 102 14 151q19 67 86 155q41 54 123 97q98 52 206 56v-23q-94 -12 -154 -68q-43 -40 -83 -119q-10 -20 -24 -80zM183 209q0 -111 16.5 -153t59.5 -42
q32 0 43 30q15 40 15 165q0 88 -14 122q-9 21 -33 35q-20 12 -40 12q-22 0 -37 -12q-10 -75 -10 -157z" />
    <glyph glyph-name="seven" unicode="7" 
d="M346 559h-188q-47 0 -64 -16q-20 -19 -45 -81h-25l49 219h377l-207 -681h-73z" />
    <glyph glyph-name="eight" unicode="8" 
d="M320 398q83 -68 118 -124q32 -51 32 -107q0 -83 -59 -131q-63 -52 -179 -52q-111 0 -166 62q-42 48 -42 116q0 115 145 157q-74 48 -98 75q-45 49 -45 119q0 74 61.5 123.5t146.5 49.5q208 0 208 -148q0 -104 -122 -140zM328 518q0 140 -94 140q-28 0 -50 -25t-22 -58
q0 -10 2 -19q20 -82 117 -138q47 22 47 100zM138 162q0 -76 29 -116q25 -34 65 -34q39 0 66.5 30t27.5 77q0 17 -4 35q-11 50 -37 80.5t-90 67.5q-57 -62 -57 -140z" />
    <glyph glyph-name="nine" unicode="9" 
d="M302 282q-33 -23 -88 -23q-87 0 -134 65q-42 57 -42 147q0 83 56 150q62 75 160 75q99 0 161 -80q55 -71 55 -165q0 -102 -14 -151q-19 -67 -86 -155q-41 -54 -123 -97q-98 -52 -206 -56v23q94 12 154 68q43 40 83 119q10 20 24 80zM321 471q0 111 -16.5 153t-59.5 42
q-32 0 -43 -30q-15 -40 -15 -165q0 -88 14 -122q9 -21 33 -35q20 -12 40 -12q22 0 37 12q10 75 10 157z" />
    <glyph glyph-name="colon" unicode=":" horiz-adv-x="333" 
d="M164 130q30 0 52.5 -21.5t22.5 -51.5q0 -31 -21 -52.5t-52 -21.5t-52 21.5t-21 52.5t20 52t51 21zM166 455q30 0 51.5 -22t21.5 -52t-21 -51.5t-52 -21.5t-52 21.5t-21 51.5t21.5 52t51.5 22z" />
    <glyph glyph-name="semicolon" unicode=";" horiz-adv-x="333" 
d="M166 455q30 0 51.5 -22t21.5 -52t-21 -51.5t-52 -21.5t-52 21.5t-21 51.5t21.5 52t51.5 22zM166 130q76 0 76 -95q0 -67 -31 -120.5t-100 -83.5v18q15 10 27 20q29 26 39 51q12 31 12 47q0 18 -14 18h-5l-4 -1q-30 0 -51.5 21t-21.5 52t21.5 52t51.5 21z" />
    <glyph glyph-name="less" unicode="&#x3c;" horiz-adv-x="250" 
d="M2 562v38q13 2 32 2q65 0 110 -25q66 -38 67 -125q1 -90 -70 -129q-46 -25 -113 -25q-17 0 -26 1v44q135 0 135 111q0 92 -135 108z" />
    <glyph glyph-name="equal" unicode="=" 
d="M106 -40q-19 7 -38 30q-22 26 -22 52q0 41 33 70q22 20 75 44q-117 33 -117 153q0 165 205 165q72 0 125 -33h114v-43h-65q31 -39 31 -89q0 -165 -205 -165q-29 0 -52 4q-34 -22 -34 -46q0 -41 64 -41h38q153 0 197 -42q28 -27 28 -96q0 -57 -64.5 -96t-160.5 -39
q-225 0 -225 105q0 22 23 41.5t50 25.5zM262 -56h-107q-45 -25 -45 -52q0 -29 34 -49q40 -23 118 -23q75 0 117 28q35 24 35 54q0 33 -64 41q-12 1 -88 1zM242 441q-62 0 -62 -132t62 -132t62 132t-62 132zM383 687q1 -68 -39.5 -113t-101.5 -45q-62 0 -105 45.5t-42 112.5
h47q4 -32 36 -50q28 -17 65 -17q35 0 62 17.5t31 49.5h47z" />
    <glyph glyph-name="greater" unicode="&#x3e;" horiz-adv-x="250" 
d="M210 299q-10 -1 -26 -1q-67 0 -113 25q-71 39 -70 129q1 87 67 125q45 25 110 25q20 0 32 -2v-38q-135 -16 -135 -108q0 -111 135 -111v-44z" />
    <glyph glyph-name="question" unicode="?" 
d="M234 130q30 0 52.5 -21.5t22.5 -51.5q0 -31 -21 -52.5t-52 -21.5t-52 21.5t-21 52.5t20 52t51 21zM219 214q0 73 39 157t39 182q0 42 -22 69q-27 33 -76 33q-21 0 -40 -14t-15 -31q0 -1 18 -24q16 -19 16 -46q0 -23 -17.5 -41t-48.5 -18q-29 0 -45.5 18t-16.5 41
q0 66 52 106q49 37 127 37q85 0 144.5 -47.5t59.5 -113.5q0 -71 -47 -120q-44 -38 -89 -76q-47 -47 -47 -112h-31z" />
    <glyph glyph-name="at" unicode="@" horiz-adv-x="250" 
d="M125 687q33 0 56.5 -24t23.5 -57t-23.5 -56.5t-56.5 -23.5q-16 0 -14 0q-11 -2 -11 -19q0 -18 13 -51q17 -42 73 -78v-21q-22 10 -42 22q-46 30 -68 69q-35 60 -35 135q0 104 84 104z" />
    <glyph glyph-name="A" unicode="A" horiz-adv-x="722" 
d="M185 196l-44 -113q-11 -29 5 -44q20 -18 82 -18v-21h-208v21q30 0 42 7q18 11 31 43l240 610h37l251 -610q13 -33 31 -43q12 -7 42 -7v-21h-333v21q63 0 83 18q16 15 5 44l-44 113h-220zM389 235q-25 66 -94 242l-95 -242h189z" />
    <glyph glyph-name="B" unicode="B" horiz-adv-x="644" 
d="M420 369q82 -14 130.5 -60t48.5 -120q0 -87 -69.5 -138t-177.5 -51h-322v21q49 0 70 35q12 21 12 46v477q0 25 -12 46q-21 35 -70 35v21h312q227 0 227 -170q0 -116 -149 -142zM416 511q0 61 -14 91q-21 45 -76 45q-36 0 -45.5 -13t-9.5 -55v-204h56q89 0 89 136z
M436 189q0 56 -24 100q-30 55 -85 55h-56v-242q0 -42 9.5 -55t45.5 -13q56 0 86 54q24 43 24 101z" />
    <glyph glyph-name="C" unicode="C" horiz-adv-x="722" 
d="M557 586q-72 79 -169 79q-101 0 -147 -122q-31 -84 -31 -206q0 -129 34 -213q17 -42 54 -70q41 -30 90 -30q122 0 204 78q25 23 47 51l29 -26q-19 -27 -34 -42q-101 -102 -246 -102q-146 0 -245 104t-99 250t99 250t245 104q56 0 101 -14q78 -24 98 -28q15 -3 25.5 11.5
t19.5 29.5h23v-230h-23q-29 75 -75 126z" />
    <glyph glyph-name="D" unicode="D" horiz-adv-x="722" 
d="M348 0h-331v21q49 0 70 35q12 21 12 46v477q0 25 -12 46q-21 35 -70 35v21h331q163 0 255 -100q80 -87 80 -221q0 -153 -90 -254q-94 -106 -245 -106zM313 34q76 0 115 33q88 72 88 293q0 196 -88 259q-38 28 -115 28q-36 0 -45.5 -13t-9.5 -55v-477q0 -42 9.5 -55
t45.5 -13z" />
    <glyph glyph-name="E" unicode="E" horiz-adv-x="667" 
d="M262 362q87 0 116 30q19 20 34 64q7 28 15 55h21v-335h-21q-8 27 -15 55q-15 44 -34 64q-29 30 -116 30v-223q0 -53 20 -65q15 -9 80 -9q89 0 151 48q55 43 97 130h27l-44 -206h-572v21q49 0 70 35q12 21 12 46v477q0 25 -12 46q-21 35 -70 35v21h565v-207h-21
q-8 27 -15 55q-15 44 -34 64q-51 54 -142 54h-57q-36 0 -45.5 -13t-9.5 -55v-217z" />
    <glyph glyph-name="F" unicode="F" horiz-adv-x="611" 
d="M258 362q87 0 116 30q19 20 34 64q7 28 15 55h21v-335h-21q-8 27 -15 55q-15 44 -34 64q-29 30 -116 30v-223q0 -25 13 -46q20 -35 69 -35v-21h-323v21q49 0 70 35q12 21 12 46v477q0 25 -12 46q-21 35 -70 35v21h565v-207h-21q-8 27 -15 55q-15 44 -34 64
q-51 54 -142 54h-57q-36 0 -45.5 -13t-9.5 -55v-217z" />
    <glyph glyph-name="G" unicode="G" horiz-adv-x="778" 
d="M664 36q-31 -21 -106 -37q-81 -16 -170 -16q-146 0 -245 104t-99 250t99 250t245 104q56 0 101 -14q78 -24 98 -28q15 -3 25.5 11.5t19.5 29.5h23v-230h-23q-29 75 -75 126q-72 79 -169 79q-101 0 -147 -122q-31 -84 -31 -206q0 -130 34 -213q47 -115 144 -115
q117 0 117 59v141q0 25 -12 46q-21 35 -70 35v21h323v-21q-49 0 -69 -35q-13 -21 -13 -46v-173z" />
    <glyph glyph-name="H" unicode="H" horiz-adv-x="778" 
d="M267 326v-224q0 -25 13 -46q20 -35 69 -35v-21h-323v21q49 0 70 35q12 21 12 46v477q0 25 -12 46q-21 35 -70 35v21h323v-21q-49 0 -69 -35q-13 -21 -13 -46v-204h240v204q0 25 -12 46q-21 35 -70 35v21h323v-21q-49 0 -69 -35q-13 -21 -13 -46v-477q0 -25 13 -46
q20 -35 69 -35v-21h-323v21q49 0 70 35q12 21 12 46v224h-240z" />
    <glyph glyph-name="I" unicode="I" horiz-adv-x="389" 
d="M271 579v-477q0 -25 13 -46q20 -35 69 -35v-21h-323v21q49 0 70 35q12 21 12 46v477q0 25 -12 46q-21 35 -70 35v21h323v-21q-49 0 -69 -35q-13 -21 -13 -46z" />
    <glyph glyph-name="J" unicode="J" 
d="M475 681v-21q-49 0 -69 -35q-13 -21 -13 -46v-463q0 -88 -66 -141q-62 -50 -157 -50q-66 0 -113 37.5t-47 91.5q0 31 20.5 51.5t49.5 20.5q27 0 47.5 -18t20.5 -44q0 -25 -15 -44.5t-15 -33.5q0 -31 50 -31q27 0 46.5 20.5t19.5 48.5v555q0 25 -12 46q-21 35 -70 35v21
h323z" />
    <glyph glyph-name="K" unicode="K" horiz-adv-x="778" 
d="M271 293v-191q0 -25 13 -46q20 -35 69 -35v-21h-323v21q49 0 70 35q12 21 12 46v477q0 25 -12 46q-21 35 -70 35v21h323v-21q-49 0 -69 -35q-13 -21 -13 -46v-228l231 234q17 17 17 33q0 12 -12 23q-20 19 -65 19v21h288v-21q-39 0 -59 -5t-52 -22t-68 -54l-146 -149
q77 -97 286 -359q15 -19 36 -39q17 -11 33 -11v-21h-338v21q52 0 68 18q6 7 6 14q0 8 -9 20l-190 247z" />
    <glyph glyph-name="L" unicode="L" horiz-adv-x="667" 
d="M344 681v-21q-49 0 -69 -35q-13 -21 -13 -46v-477q0 -53 20 -65q15 -9 80 -9q89 0 151 48q55 43 97 130h27l-44 -206h-572v21q49 0 70 35q12 21 12 46v477q0 25 -12 46q-21 35 -70 35v21h323z" />
    <glyph glyph-name="M" unicode="M" horiz-adv-x="944" 
d="M464 211l204 470h241v-21q-49 0 -69 -35q-13 -21 -13 -46v-477q0 -25 13 -46q20 -35 69 -35v-21h-323v21q49 0 70 35q12 21 12 46v477l-245 -579h-30l-243 589v-487q0 -25 13 -46q20 -35 69 -35v-21h-203v21q49 0 70 35q12 21 12 46v477q0 25 -12 46q-21 35 -70 35v21
h243z" />
    <glyph glyph-name="N" unicode="N" horiz-adv-x="722" 
d="M572 254v325q0 25 -12 46q-21 35 -70 35v21h203v-21q-49 0 -69 -35q-13 -21 -13 -46v-579h-36l-424 520v-418q0 -25 13 -46q20 -35 69 -35v-21h-203v21q49 0 70 35q12 21 12 46v477q-9 11 -37 43q-32 38 -45 38v21h203z" />
    <glyph glyph-name="O" unicode="O" horiz-adv-x="778" 
d="M388 691q146 0 245 -104t99 -250t-99 -250t-245 -104t-245 104t-99 250t99 250t245 104zM388 665q-101 0 -147 -122q-31 -84 -31 -206q0 -128 34 -213q46 -115 144 -115t144 115q34 85 34 213q0 122 -31 206q-46 122 -147 122z" />
    <glyph glyph-name="P" unicode="P" horiz-adv-x="611" 
d="M271 306v-204q0 -25 13 -46q20 -35 69 -35v-21h-323v21q49 0 70 35q12 21 12 46v477q0 25 -12 46q-21 35 -70 35v21h322q108 0 177.5 -51t69.5 -138q0 -88 -71 -138q-67 -48 -176 -48h-81zM436 492q0 58 -24 101q-30 54 -86 54q-36 0 -45.5 -13t-9.5 -55v-242h56
q55 0 85 55q24 44 24 100z" />
    <glyph glyph-name="Q" unicode="Q" horiz-adv-x="778" 
d="M506 8q23 -51 40 -73q25 -34 64 -53q35 -17 67 -17q24 0 75 13l10 -26q-90 -33 -173 -33q-66 0 -133 21q-114 36 -153 151q-120 28 -194.5 124.5t-74.5 221.5q0 146 99 250t245 104t245 -104t99 -250q0 -150 -101 -252q-50 -50 -115 -77zM378 665q-101 0 -147 -122
q-31 -84 -31 -206q0 -128 34 -213q46 -115 144 -115t144 115q34 85 34 213q0 122 -31 206q-46 122 -147 122z" />
    <glyph glyph-name="R" unicode="R" horiz-adv-x="722" 
d="M465 322l187 -273q20 -28 45 -28v-21h-194l-200 306h-32v-204q0 -25 13 -46q20 -35 69 -35v-21h-323v21q49 0 70 35q12 21 12 46v477q0 25 -12 46q-21 35 -70 35v21h322q108 0 177.5 -51t69.5 -138q0 -125 -134 -170zM436 492q0 58 -24 101q-30 54 -86 54
q-36 0 -45.5 -13t-9.5 -55v-242h56q55 0 85 55q24 44 24 100z" />
    <glyph glyph-name="S" unicode="S" horiz-adv-x="556" 
d="M417 649q14 -4 26 11q9 15 19 30h23v-220h-23q-30 79 -74 127q-32 35 -60.5 48t-71.5 13t-71.5 -27t-28.5 -73q0 -53 51 -89q17 -12 110 -54.5t136 -86.5q54 -56 54 -135q0 -98 -75 -156q-69 -54 -169 -54q-35 0 -89 16.5t-82 16.5q-14 0 -19 -11q-2 -3 -7 -23h-23v240
h23q27 -94 75 -146q34 -37 58.5 -50t63.5 -12q55 2 91 28q41 31 41 82q0 54 -49 89q-20 14 -108 55q-186 86 -186 224q0 82 57 141t137 59q57 0 99 -16q69 -26 72 -27z" />
    <glyph glyph-name="T" unicode="T" horiz-adv-x="667" 
d="M631 681v-207h-21q-8 27 -15 55q-15 44 -34 64q-51 54 -142 54h-10v-545q0 -25 13 -46q20 -35 69 -35v-21h-323v21q49 0 70 35q12 21 12 46v545h-10q-91 0 -142 -54q-19 -20 -33 -64q-8 -28 -16 -55h-21v207h603z" />
    <glyph glyph-name="U" unicode="U" horiz-adv-x="722" 
d="M412 28q75 0 123 49q46 46 46 115v387q0 25 -12 46q-21 35 -70 35v21h203v-21q-49 0 -69 -35q-13 -21 -13 -46v-377q0 -91 -51 -147q-65 -72 -201 -72q-117 0 -191.5 59t-74.5 150v387q0 25 -12 46q-21 35 -70 35v21h323v-21q-49 0 -69 -35q-13 -21 -13 -46v-367
q0 -184 151 -184z" />
    <glyph glyph-name="V" unicode="V" horiz-adv-x="722" 
d="M344 0l-251 610q-13 33 -31 43q-12 7 -42 7v21h333v-21q-63 0 -83 -18q-16 -15 -5 -44l154 -394l154 394q11 29 -5 44q-20 18 -82 18v21h208v-21q-30 0 -42 -7q-18 -11 -31 -43l-240 -610h-37z" />
    <glyph glyph-name="W" unicode="W" horiz-adv-x="1000" 
d="M512 470l-183 -470h-39l-205 610q-10 31 -31 43q-12 7 -34 7v21h320v-21q-58 0 -78 -18q-14 -13 -5 -44l114 -374l121 306l-27 80q-17 50 -70 50v21h325v-21q-58 0 -78 -18q-14 -13 -5 -44l107 -374l130 374q10 30 -5 44q-20 18 -82 18v21h198v-21q-20 0 -32 -7
q-20 -12 -31 -43l-213 -610h-39z" />
    <glyph glyph-name="X" unicode="X" horiz-adv-x="722" 
d="M289 295l-196 315q-16 26 -34.5 38t-34.5 12v21h328v-21q-73 0 -73 -31q0 -8 8 -21l108 -173l102 135q17 23 17 41q0 16 -14 31q-17 18 -68 18v21h238v-21q-36 0 -53 -11q-13 -8 -36 -39l-162 -214l202 -325q7 -12 36 -39q17 -11 33 -11v-21h-328v21q73 0 73 31
q0 8 -8 21l-114 183l-113 -148q-15 -20 -15 -41q0 -46 77 -46v-21h-238v21q26 0 47 11q28 15 47 39z" />
    <glyph glyph-name="Y" unicode="Y" horiz-adv-x="722" 
d="M272 275l-184 335q-20 37 -31.5 43.5t-36.5 6.5v21h333v-21q-63 0 -82.5 -18t-5.5 -44l138 -260l155 254q6 10 5 26t-10 24q-20 18 -72 18v21h213v-21q-13 0 -42 -17q-18 -10 -31 -33l-190 -320v-188q0 -25 13 -46q20 -35 69 -35v-21h-323v21q49 0 70 35q12 21 12 46v173
z" />
    <glyph glyph-name="Z" unicode="Z" horiz-adv-x="667" 
d="M617 236l-24 -236h-570l377 644h-110q-91 0 -142 -54q-34 -36 -59 -116h-21l10 207h516l-377 -643h135q122 0 164 36q48 41 84 162h17z" />
    <glyph glyph-name="bracketleft" unicode="[" horiz-adv-x="333" 
d="M75 674h217v-28h-67q-26 0 -41 -17t-15 -41v-643q0 -25 15 -41.5t41 -16.5h67v-29h-217v816z" />
    <glyph glyph-name="backslash" unicode="\" 
d="M106 -40q-19 7 -38 30q-22 26 -22 52q0 41 33 70q22 20 75 44q-117 33 -117 153q0 165 205 165q72 0 125 -33h114v-43h-65q31 -39 31 -89q0 -165 -205 -165q-29 0 -52 4q-34 -22 -34 -46q0 -41 64 -41h38q153 0 197 -42q28 -27 28 -96q0 -57 -64.5 -96t-160.5 -39
q-225 0 -225 105q0 22 23 41.5t50 25.5zM262 -56h-107q-45 -25 -45 -52q0 -29 34 -49q40 -23 118 -23q75 0 117 28q35 24 35 54q0 33 -64 41q-12 1 -88 1zM242 441q-62 0 -62 -132t62 -132t62 132t-62 132zM304 606q0 -26 -18 -44.5t-44 -18.5t-44 18.5t-18 44.5t18 44
t44 18t44 -18t18 -44z" />
    <glyph glyph-name="bracketright" unicode="]" horiz-adv-x="333" 
d="M262 674v-816h-217v29h67q26 0 41 16.5t15 41.5v643q0 24 -15 41t-41 17h-67v28h217z" />
    <glyph glyph-name="asciicircum" unicode="^" horiz-adv-x="1" 
d="M-240 0h30l-19 -56q68 5 95 -32q12 -17 12 -39q0 -36 -33 -59.5t-99 -23.5q-61 0 -117 34l18 34q48 -24 95 -24q53 0 53 36q0 10 -6 21q-10 17 -66 18z" />
    <glyph glyph-name="underscore" unicode="_" horiz-adv-x="1" 
d="M-110 -85v-70h-319v70h319zM-211 -262q0 -26 -18 -44.5t-44 -18.5t-44 18.5t-18 44.5t18 44t44 18t44 -18t18 -44z" />
    <glyph glyph-name="grave" unicode="`" horiz-adv-x="444" 
d="M406 458v-25l-226 -401h78q62 0 99 39q28 30 43 92h17l-10 -163h-387v21l229 405h-55q-62 0 -99 -39q-24 -26 -33 -62h-17l10 133h351zM371 -85v-70h-319v70h319z" />
    <glyph glyph-name="a" unicode="a" 
d="M281 277v96q0 68 -82 68q-66 0 -66 -33q0 -9 12.5 -28.5t12.5 -32.5q0 -20 -18 -39t-42 -19q-25 0 -43.5 17.5t-18.5 40.5q0 56 54 93q50 34 120 34q92 0 147 -38q60 -40 60 -113v-238q0 -42 18 -42t32 12l9 -23q-64 -49 -123 -49q-61 0 -71 58q-64 -57 -138 -57
q-115 0 -115 100q0 90 105 140q52 25 147 53zM281 81v161q-49 -16 -80.5 -50t-31.5 -74q0 -25 14 -46t36 -21q32 0 62 30z" />
    <glyph glyph-name="b" unicode="b" horiz-adv-x="556" 
d="M218 411q54 63 113 63q91 0 144 -72q51 -68 51 -173q0 -108 -47 -173q-52 -72 -148 -72q-84 0 -153 52l-92 -53v615q0 51 -42 51v21h174v-259zM291 414q-47 0 -73 -59v-297q27 -31 73 -31q92 0 92 202q0 87 -24.5 136t-67.5 49z" />
    <glyph glyph-name="c" unicode="c" horiz-adv-x="444" 
d="M252 441q-52 0 -69 -62q-13 -44 -13 -150q0 -85 36 -128.5t96 -43.5q67 0 109 42l17 -21q-64 -94 -176 -94q-99 0 -162 71t-63 174q0 102 65 173.5t160 71.5q64 0 111 -29q52 -33 52 -88q0 -23 -18.5 -40.5t-43.5 -17.5q-24 0 -42 19t-18 39q0 46 -2 54q-7 30 -39 30z
" />
    <glyph glyph-name="d" unicode="d" horiz-adv-x="556" 
d="M338 411v187q0 51 -42 51v21h174v-598q0 -51 42 -51v-21h-174v59q-54 -75 -113 -75q-96 0 -148 72q-47 65 -47 173q0 105 51 173q53 72 144 72q59 0 113 -63zM265 414q-43 0 -67.5 -49t-24.5 -136q0 -94 16 -135q18 -47 66 -47q52 0 83 66v242q-26 59 -73 59z" />
    <glyph glyph-name="e" unicode="e" 
d="M477 275v-43h-307v-3q0 -85 36 -128.5t96 -43.5q67 0 109 42l17 -21q-64 -94 -159 -94q-101 0 -171.5 71.5t-70.5 173.5q0 99 70 172t155 73t155 -60.5t70 -138.5zM252 441q-36 0 -59 -47t-23 -119h164q0 72 -23 119t-59 47z" />
    <glyph glyph-name="f" unicode="f" horiz-adv-x="333" 
d="M204 72q0 -51 42 -51v-21h-216v21q42 0 42 51v339h-52v48h52v51q0 81 44 128q48 52 142 52q67 0 99 -44q21 -31 21 -70q0 -20 -13 -34q-15 -17 -40 -17q-26 0 -41.5 15.5t-15.5 35.5q0 18 9 41t9 28q0 15 -35 15q-36 0 -44 -44q-3 -16 -3 -106v-51h92v-48h-92v-339z" />
    <glyph glyph-name="g" unicode="g" 
d="M106 -40q-19 7 -38 30q-22 26 -22 52q0 41 33 70q22 20 75 44q-117 33 -117 153q0 165 205 165q72 0 125 -33h114v-43h-65q31 -39 31 -89q0 -165 -205 -165q-29 0 -52 4q-34 -22 -34 -46q0 -41 64 -41h38q153 0 197 -42q28 -27 28 -96q0 -57 -64.5 -96t-160.5 -39
q-225 0 -225 105q0 22 23 41.5t50 25.5zM262 -56h-107q-45 -25 -45 -52q0 -29 34 -49q40 -23 118 -23q75 0 117 28q35 24 35 54q0 33 -64 41q-12 1 -88 1zM242 441q-62 0 -62 -132t62 -132t62 132t-62 132z" />
    <glyph glyph-name="h" unicode="h" horiz-adv-x="556" 
d="M204 344v-272q0 -51 42 -51v-21h-216v21q42 0 42 51v526q0 51 -42 51v21h174v-286q35 90 136 90q50 0 92 -31q50 -38 50 -101v-270q0 -51 42 -51v-21h-216v21q42 0 42 51v260q0 75 -59 75q-43 0 -87 -63z" />
    <glyph glyph-name="i" unicode="i" horiz-adv-x="278" 
d="M204 72q0 -51 42 -51v-21h-216v21q42 0 42 51v314q0 51 -42 51v21h174v-386zM131 687q29 0 50 -21t21 -50t-21 -50t-50 -21t-50 21t-21 50t21 50t50 21z" />
    <glyph glyph-name="j" unicode="j" horiz-adv-x="328" 
d="M254 -30q0 -81 -44 -128q-48 -52 -142 -52q-67 0 -99 44q-21 31 -21 70q0 20 14 35.5t39 15.5q26 0 41.5 -15.5t15.5 -35.5q0 -18 -9 -41t-9 -28q0 -15 35 -15q36 0 44 44q3 16 3 106v416q0 51 -42 51v21h174v-488zM181 687q29 0 50 -21t21 -50t-21 -50t-50 -21t-50 21
t-21 50t21 50t50 21z" />
    <glyph glyph-name="k" unicode="k" horiz-adv-x="556" 
d="M204 205v-133q0 -51 42 -51v-21h-216v21q42 0 42 51v526q0 51 -42 51v21h174v-420l135 136q7 7 7 15q0 13 -16.5 24.5t-36.5 11.5v21h201v-21q-51 0 -86 -34l-93 -90l166 -241q35 -51 55 -51v-21h-231v21q40 0 40 29q0 11 -8 22l-109 157z" />
    <glyph glyph-name="l" unicode="l" horiz-adv-x="278" 
d="M204 72q0 -51 42 -51v-21h-216v21q42 0 42 51v526q0 51 -42 51v21h174v-598z" />
    <glyph glyph-name="m" unicode="m" horiz-adv-x="834" 
d="M482 344v-272q0 -51 42 -51v-21h-216v21q42 0 42 51v260q0 75 -59 75q-43 0 -87 -63v-272q0 -51 42 -51v-21h-216v21q42 0 42 51v314q0 51 -42 51v21h174v-74q35 90 136 90q42 0 81 -24q45 -28 57 -76q32 100 140 100q50 0 92 -31q50 -38 50 -101v-270q0 -51 42 -51v-21
h-216v21q42 0 42 51v260q0 75 -59 75q-43 0 -87 -63z" />
    <glyph glyph-name="n" unicode="n" horiz-adv-x="556" 
d="M204 344v-272q0 -51 42 -51v-21h-216v21q42 0 42 51v314q0 51 -42 51v21h174v-74q35 90 136 90q50 0 92 -31q50 -38 50 -101v-270q0 -51 42 -51v-21h-216v21q42 0 42 51v260q0 75 -59 75q-43 0 -87 -63z" />
    <glyph glyph-name="o" unicode="o" 
d="M252 474q99 0 162 -71t63 -174t-63 -174t-162 -71t-162 71t-63 174t63 174t162 71zM252 441q-52 0 -70 -62q-12 -43 -12 -150t12 -150q18 -62 70 -62t70 62q12 43 12 150t-12 150q-18 62 -70 62z" />
    <glyph glyph-name="p" unicode="p" horiz-adv-x="556" 
d="M36 -212v21q42 0 42 51v526q0 51 -42 51v21h174v-59q54 75 113 75q96 0 148 -72q47 -65 47 -173q0 -105 -51 -173q-53 -72 -144 -72q-59 0 -113 63v-187q0 -51 42 -51v-21h-216zM283 44q43 0 67.5 49t24.5 136q0 94 -16 135q-18 47 -66 47q-52 0 -83 -66v-242
q26 -59 73 -59z" />
    <glyph glyph-name="q" unicode="q" horiz-adv-x="556" 
d="M296 -212v21q42 0 42 51v187q-54 -63 -113 -63q-91 0 -144 72q-51 68 -51 173q0 108 47 173q52 72 148 72q84 0 153 -52l92 53v-615q0 -51 42 -51v-21h-216zM265 44q47 0 73 59v297q-27 31 -73 31q-92 0 -92 -202q0 -87 24.5 -136t67.5 -49z" />
    <glyph glyph-name="r" unicode="r" horiz-adv-x="444" 
d="M204 321v-249q0 -51 42 -51v-21h-216v21q42 0 42 51v314q0 51 -42 51v21h174v-79q53 93 121 93q37 0 63 -22t26 -56q0 -26 -18.5 -44.5t-44.5 -18.5q-37 0 -60 39q-10 16 -25 16q-18 0 -40 -22q-11 -11 -22 -43z" />
    <glyph glyph-name="s" unicode="s" horiz-adv-x="389" 
d="M296 452q22 -6 31 22h15v-153h-15q-12 35 -17 47q-12 26 -27 41q-31 30 -80 30q-27 0 -48 -16q-24 -18 -24 -48q0 -34 35 -58q11 -8 73 -38q128 -62 128 -159q0 -66 -49 -103q-45 -34 -115 -34q-24 0 -70 11.5t-65 11.5q-11 0 -18 -23h-15v166h15q19 -62 50.5 -97.5
t82.5 -35.5q32 0 58 15q31 19 31 52q0 34 -37 58q-6 4 -69 34q-70 33 -101 68q-34 40 -34 98q0 55 44.5 94t110.5 39q37 0 61.5 -7t48.5 -15z" />
    <glyph glyph-name="t" unicode="t" horiz-adv-x="333" 
d="M204 459h92v-48h-92v-287q0 -51 2 -61q6 -25 29 -25q29 0 63 57l21 -13q-25 -49 -54 -71q-35 -27 -90 -27q-103 0 -103 106v321h-52v28l165 191h19v-171z" />
    <glyph glyph-name="u" unicode="u" horiz-adv-x="556" 
d="M350 114v272q0 51 -42 51v21h174v-386q0 -51 42 -51v-21h-174v74q-35 -90 -136 -90q-50 0 -92 32q-50 37 -50 100v270q0 51 -42 51v21h174v-332q0 -75 59 -75q43 0 87 63z" />
    <glyph glyph-name="v" unicode="v" 
d="M299 168l85 218q4 9 4 17q0 34 -58 34v21h147v-21q-27 0 -42 -22q-3 -4 -13 -29l-157 -386h-32l-157 386q-10 25 -13 29q-15 22 -42 22v21h245v-21q-58 0 -58 -33q0 -9 4 -18z" />
    <glyph glyph-name="w" unicode="w" horiz-adv-x="722" 
d="M375 295l-120 -295h-32l-157 386q-10 25 -13 29q-15 22 -42 22v21h245v-21q-58 0 -58 -33q0 -9 4 -18l87 -218l69 179l-12 39l-13 29q-15 22 -42 22v21h245v-21q-67 0 -67 -31q0 -9 3 -20l62 -218l85 218q4 9 4 17q0 34 -58 34v21h147v-21q-27 0 -42 -22q-3 -4 -13 -29
l-157 -386h-32z" />
    <glyph glyph-name="x" unicode="x" 
d="M300 270l131 -198q34 -51 55 -51v-21h-241v21q48 0 48 16q0 11 -16 35l-62 94l-76 -94q-17 -22 -17 -33q0 -18 49 -18v-21h-156v21q29 0 49 17q5 4 29 34l101 125q-34 52 -124 189q-33 51 -55 51v21h241v-21q-48 0 -48 -16q0 -11 16 -35l55 -84l68 84q17 22 17 33
q0 18 -49 18v21h156v-21q-29 0 -49 -17q-5 -4 -29 -34z" />
    <glyph glyph-name="y" unicode="y" 
d="M183 -127q27 22 54 117l-161 396q-10 25 -13 29q-15 22 -42 22v21h245v-21q-58 0 -58 -33q0 -9 4 -18l87 -218l85 218q4 9 4 17q0 34 -58 34v21h147v-21q-27 0 -42 -22q-4 -6 -13 -29l-188 -495q-35 -93 -128 -93q-34 0 -60.5 21.5t-26.5 53.5q0 28 18.5 48.5t44.5 20.5
q23 0 40 -17t17 -40q0 -15 -5 -23q6 -3 13 -3q19 0 36 14z" />
    <glyph glyph-name="z" unicode="z" horiz-adv-x="444" 
d="M406 458v-25l-226 -401h78q62 0 99 39q28 30 43 92h17l-10 -163h-387v21l229 405h-55q-62 0 -99 -39q-24 -26 -33 -62h-17l10 133h351z" />
    <glyph glyph-name="braceleft" unicode="{" horiz-adv-x="394" 
d="M52 281q82 7 82 83v200q0 30 29 65q35 44 89 44h83v-34h-40q-60 0 -60 -65v-177q0 -51 -47 -93q-43 -39 -84 -38q41 1 84 -38q47 -42 47 -93v-178q0 -65 60 -65h40v-34h-83q-54 0 -89 44q-29 35 -29 65v198q0 77 -82 84v32z" />
    <glyph glyph-name="bar" unicode="|" horiz-adv-x="778" 
d="M664 36q-31 -21 -106 -37q-81 -16 -170 -16q-146 0 -245 104t-99 250t99 250t245 104q56 0 101 -14q78 -24 98 -28q15 -3 25.5 11.5t19.5 29.5h23v-230h-23q-29 75 -75 126q-72 79 -169 79q-101 0 -147 -122q-31 -84 -31 -206q0 -130 34 -213q47 -115 144 -115
q117 0 117 59v141q0 25 -12 46q-21 35 -70 35v21h323v-21q-49 0 -69 -35q-13 -21 -13 -46v-173zM450 817q0 -26 -18 -44.5t-44 -18.5t-44 18.5t-18 44.5t18 44t44 18t44 -18t18 -44z" />
    <glyph glyph-name="braceright" unicode="}" horiz-adv-x="394" 
d="M342 281v-32q-82 -7 -82 -84v-198q0 -30 -29 -65q-35 -44 -89 -44h-83v34h40q60 0 60 65v178q0 51 47 93q43 39 84 38q-41 -1 -84 38q-47 42 -47 93v177q0 65 -60 65h-40v34h83q54 0 89 -44q29 -35 29 -65v-200q0 -76 82 -83z" />
    <glyph glyph-name="asciitilde" unicode="~" horiz-adv-x="667" 
d="M617 236l-24 -236h-570l377 644h-110q-91 0 -142 -54q-34 -36 -59 -116h-21l10 207h516l-377 -643h135q122 0 164 36q48 41 84 162h17zM476 -85v-70h-319v70h319z" />
    <glyph glyph-name="Adieresis" unicode="&#xc4;" horiz-adv-x="556" 
d="M338 411v187q0 51 -42 51v21h174v-598q0 -51 42 -51v-21h-174v59q-54 -75 -113 -75q-96 0 -148 72q-47 65 -47 173q0 105 51 173q53 72 144 72q59 0 113 -63zM265 414q-43 0 -67.5 -49t-24.5 -136q0 -94 16 -135q18 -47 66 -47q52 0 83 66v242q-26 59 -73 59zM427 -85
v-70h-319v70h319z" />
    <glyph glyph-name="Aring" unicode="&#xc5;" horiz-adv-x="444" 
d="M406 458v-25l-226 -401h78q62 0 99 39q28 30 43 92h17l-10 -163h-387v21l229 405h-55q-62 0 -99 -39q-24 -26 -33 -62h-17l10 133h351zM397 698l-120 -186h-82l-119 187l56 -2l104 -93l103 93z" />
    <glyph glyph-name="Ccedilla" unicode="&#xc7;" 
d="M106 -40q-19 7 -38 30q-22 26 -22 52q0 41 33 70q22 20 75 44q-117 33 -117 153q0 165 205 165q72 0 125 -33h114v-43h-65q31 -39 31 -89q0 -165 -205 -165q-29 0 -52 4q-34 -22 -34 -46q0 -41 64 -41h38q153 0 197 -42q28 -27 28 -96q0 -57 -64.5 -96t-160.5 -39
q-225 0 -225 105q0 22 23 41.5t50 25.5zM262 -56h-107q-45 -25 -45 -52q0 -29 34 -49q40 -23 118 -23q75 0 117 28q35 24 35 54q0 33 -64 41q-12 1 -88 1zM242 441q-62 0 -62 -132t62 -132t62 132t-62 132zM400 670q0 -25 -25 -42q-35 -25 -85 -54q-67 -38 -88 -51l-66 -1
q61 62 163 170q24 25 51 25q19 0 34.5 -13.5t15.5 -33.5z" />
    <glyph glyph-name="Eacute" unicode="&#xc9;" horiz-adv-x="556" 
d="M204 205v-133q0 -51 42 -51v-21h-216v21q42 0 42 51v526q0 51 -42 51v21h174v-420l135 136q7 7 7 15q0 13 -16.5 24.5t-36.5 11.5v21h201v-21q-51 0 -86 -34l-93 -90l166 -241q35 -51 55 -51v-21h-231v21q40 0 40 29q0 11 -8 22l-109 157zM544 698l-120 -186h-82
l-119 187l56 -2l104 -93l103 93z" />
    <glyph glyph-name="Ntilde" unicode="&#xd1;" horiz-adv-x="1" 
d="M-231 -85v-70h-319v70h319zM-332 -262q0 -26 -18 -44.5t-44 -18.5t-44 18.5t-18 44.5t18 44t44 18t44 -18t18 -44z" />
    <glyph glyph-name="Odieresis" unicode="&#xd6;" 
d="M281 277v96q0 68 -82 68q-66 0 -66 -33q0 -9 12.5 -28.5t12.5 -32.5q0 -20 -18 -39t-42 -19q-25 0 -43.5 17.5t-18.5 40.5q0 56 54 93q50 34 120 34q92 0 147 -38q60 -40 60 -113v-238q0 -42 18 -42t32 12l9 -23q-64 -49 -123 -49q-61 0 -71 58q-64 -57 -138 -57
q-115 0 -115 100q0 90 105 140q52 25 147 53zM281 81v161q-49 -16 -80.5 -50t-31.5 -74q0 -25 14 -46t36 -21q32 0 62 30zM323 592q0 -38 -26.5 -64.5t-64.5 -26.5q-37 0 -64 26.5t-27 64.5t26.5 64.5t64.5 26.5t64.5 -26.5t26.5 -64.5zM281 592q0 21 -14 35t-35 14t-35 -14
t-14 -35t14.5 -35t34.5 -14q21 0 35 14t14 35z" />
    <glyph glyph-name="Udieresis" unicode="&#xdc;" horiz-adv-x="556" 
d="M246 -16q-28 2 -77.5 17t-76.5 15q-14 0 -19 -11q-2 -3 -7 -23h-23v240h23q27 -94 75 -146q34 -37 58.5 -50t63.5 -12q55 2 91 28q41 31 41 82q0 54 -49 89q-20 14 -108 55q-186 86 -186 224q0 82 57 141t137 59q57 0 99 -16q69 -26 72 -27q14 -4 26 11q9 15 19 30h23
v-220h-23q-30 79 -74 127q-32 35 -60.5 48t-71.5 13t-71.5 -27t-28.5 -73q0 -53 51 -89q17 -12 110 -54.5t136 -86.5q54 -56 54 -135q0 -94 -70 -152q-64 -53 -160 -58l-13 -39q68 5 95 -32q12 -17 12 -39q0 -36 -33 -59.5t-99 -23.5q-61 0 -117 34l18 34q48 -24 95 -24
q53 0 53 36q0 10 -6 21q-10 17 -66 18z" />
    <glyph glyph-name="aacute" unicode="&#xe1;" horiz-adv-x="389" 
d="M354 732l-59 2l-103 92l-104 -92l-57 -2l120 186h82zM353 0h-323v21q49 0 70 35q12 21 12 46v477q0 25 -12 46q-21 35 -70 35v21h323v-21q-49 0 -69 -35q-13 -21 -13 -46v-477q0 -25 13 -46q20 -35 69 -35v-21z" />
    <glyph glyph-name="agrave" unicode="&#xe0;" horiz-adv-x="389" 
d="M250 827q0 -24 -17.5 -42.5t-40.5 -18.5q-24 0 -42 18.5t-18 42.5q0 25 17.5 41.5t42.5 16.5q24 0 41 -17t17 -41zM353 0h-323v21q49 0 70 35q12 21 12 46v477q0 25 -12 46q-21 35 -70 35v21h323v-21q-49 0 -69 -35q-13 -21 -13 -46v-477q0 -25 13 -46q20 -35 69 -35v-21
z" />
    <glyph glyph-name="acircumflex" unicode="&#xe2;" horiz-adv-x="611" 
d="M271 306v-204q0 -25 13 -46q20 -35 69 -35v-21h-323v21q49 0 70 35q12 21 12 46v477q0 25 -12 46q-21 35 -70 35v21h322q108 0 177.5 -51t69.5 -138q0 -88 -71 -138q-67 -48 -176 -48h-81zM436 492q0 58 -24 101q-30 54 -86 54q-36 0 -45.5 -13t-9.5 -55v-242h56
q55 0 85 55q24 44 24 100zM463 835v-70h-319v70h319z" />
    <glyph glyph-name="adieresis" unicode="&#xe4;" horiz-adv-x="667" 
d="M631 681v-207h-21q-8 27 -15 55q-15 44 -34 64q-51 54 -142 54h-10v-545q0 -25 13 -46q20 -35 69 -35v-21h-323v21q49 0 70 35q12 21 12 46v545h-10q-91 0 -142 -54q-19 -20 -33 -64q-8 -28 -16 -55h-21v207h603zM490 -85v-70h-319v70h319z" />
    <glyph glyph-name="atilde" unicode="&#xe3;" horiz-adv-x="667" 
d="M262 362q87 0 116 30q19 20 34 64q7 28 15 55h21v-335h-21q-8 27 -15 55q-15 44 -34 64q-29 30 -116 30v-223q0 -53 20 -65q15 -9 80 -9q89 0 151 48q55 43 97 130h27l-44 -206h-572v21q49 0 70 35q12 21 12 46v477q0 25 -12 46q-21 35 -70 35v21h565v-207h-21
q-8 27 -15 55q-15 44 -34 64q-51 54 -142 54h-57q-36 0 -45.5 -13t-9.5 -55v-217zM483 835v-70h-319v70h319z" />
    <glyph glyph-name="aring" unicode="&#xe5;" horiz-adv-x="433" 
d="M235 474q61 0 107 -27t46 -69q0 -54 -52 -54q-37 0 -48 46q-17 71 -66 71q-72 0 -72 -104q0 -77 64 -77q8 0 27.5 2.5t29.5 2.5q48 0 48 -29q0 -32 -49 -32q-10 0 -27 4t-28 4q-65 0 -65 -85q0 -101 107 -101q93 0 124 84l24 -5q-8 -63 -63 -94q-46 -27 -115 -27
q-84 0 -137 30q-63 36 -63 106q0 45 26 76t70 41q-84 25 -84 102q0 66 61 103q54 32 135 32zM368 687q1 -68 -39.5 -113t-101.5 -45q-62 0 -105 45.5t-42 112.5h47q4 -32 36 -50q28 -17 65 -17q35 0 62 17.5t31 49.5h47z" />
    <glyph glyph-name="ccedilla" unicode="&#xe7;" horiz-adv-x="722" 
d="M412 28q75 0 123 49q46 46 46 115v387q0 25 -12 46q-21 35 -70 35v21h203v-21q-49 0 -69 -35q-13 -21 -13 -46v-377q0 -91 -51 -147q-65 -72 -201 -72q-117 0 -191.5 59t-74.5 150v387q0 25 -12 46q-21 35 -70 35v21h323v-21q-49 0 -69 -35q-13 -21 -13 -46v-367
q0 -184 151 -184zM554 835v-70h-319v70h319z" />
    <glyph glyph-name="eacute" unicode="&#xe9;" horiz-adv-x="667" 
d="M262 362q87 0 116 30q19 20 34 64q7 28 15 55h21v-335h-21q-8 27 -15 55q-15 44 -34 64q-29 30 -116 30v-223q0 -53 20 -65q15 -9 80 -9q89 0 151 48q55 43 97 130h27l-44 -206h-572v21q49 0 70 35q12 21 12 46v477q0 25 -12 46q-21 35 -70 35v21h565v-207h-21
q-8 27 -15 55q-15 44 -34 64q-51 54 -142 54h-57q-36 0 -45.5 -13t-9.5 -55v-217zM470 737l-67 1q-55 31 -172 105q-25 17 -25 42q0 20 15.5 33.5t34.5 13.5q27 0 51 -25q49 -51 163 -170z" />
    <glyph glyph-name="egrave" unicode="&#xe8;" horiz-adv-x="556" 
d="M338 411v187q0 51 -42 51v21h174v-598q0 -51 42 -51v-21h-174v59q-54 -75 -113 -75q-96 0 -148 72q-47 65 -47 173q0 105 51 173q53 72 144 72q59 0 113 -63zM265 414q-43 0 -67.5 -49t-24.5 -136q0 -94 16 -135q18 -47 66 -47q52 0 83 66v242q-26 59 -73 59zM351 -128
q0 -26 -18 -44.5t-44 -18.5t-44 18.5t-18 44.5t18 44t44 18t44 -18t18 -44z" />
    <glyph glyph-name="ecircumflex" unicode="&#xea;" horiz-adv-x="556" 
d="M417 649q14 -4 26 11q9 15 19 30h23v-220h-23q-30 79 -74 127q-32 35 -60.5 48t-71.5 13t-71.5 -27t-28.5 -73q0 -53 51 -89q17 -12 110 -54.5t136 -86.5q54 -56 54 -135q0 -98 -75 -156q-69 -54 -169 -54q-35 0 -89 16.5t-82 16.5q-14 0 -19 -11q-2 -3 -7 -23h-23v240
h23q27 -94 75 -146q34 -37 58.5 -50t63.5 -12q55 2 91 28q41 31 41 82q0 54 -49 89q-20 14 -108 55q-186 86 -186 224q0 82 57 141t137 59q57 0 99 -16q69 -26 72 -27zM335 -128q0 -26 -18 -44.5t-44 -18.5t-44 18.5t-18 44.5t18 44t44 18t44 -18t18 -44z" />
    <glyph glyph-name="edieresis" unicode="&#xeb;" horiz-adv-x="722" 
d="M348 0h-331v21q49 0 70 35q12 21 12 46v477q0 25 -12 46q-21 35 -70 35v21h331q163 0 255 -100q80 -87 80 -221q0 -153 -90 -254q-94 -106 -245 -106zM313 34q76 0 115 33q88 72 88 293q0 196 -88 259q-38 28 -115 28q-36 0 -45.5 -13t-9.5 -55v-477q0 -42 9.5 -55
t45.5 -13zM402 -128q0 -26 -18 -44.5t-44 -18.5t-44 18.5t-18 44.5t18 44t44 18t44 -18t18 -44z" />
    <glyph glyph-name="iacute" unicode="&#xed;" horiz-adv-x="389" 
d="M333 888q1 -68 -39.5 -113t-101.5 -45q-62 0 -105 45.5t-42 112.5h47q4 -32 36 -50q28 -17 65 -17q35 0 62 17.5t31 49.5h47zM353 0h-323v21q49 0 70 35q12 21 12 46v477q0 25 -12 46q-21 35 -70 35v21h323v-21q-49 0 -69 -35q-13 -21 -13 -46v-477q0 -25 13 -46
q20 -35 69 -35v-21z" />
    <glyph glyph-name="igrave" unicode="&#xec;" horiz-adv-x="722" 
d="M348 0h-331v21q49 0 70 35q12 21 12 46v477q0 25 -12 46q-21 35 -70 35v21h331q163 0 255 -100q80 -87 80 -221q0 -153 -90 -254q-94 -106 -245 -106zM313 34q76 0 115 33q88 72 88 293q0 196 -88 259q-38 28 -115 28q-36 0 -45.5 -13t-9.5 -55v-477q0 -42 9.5 -55
t45.5 -13zM518 -85v-70h-319v70h319z" />
    <glyph glyph-name="icircumflex" unicode="&#xee;" horiz-adv-x="778" 
d="M267 326v-224q0 -25 13 -46q20 -35 69 -35v-21h-323v21q49 0 70 35q12 21 12 46v477q0 25 -12 46q-21 35 -70 35v21h323v-21q-49 0 -69 -35q-13 -21 -13 -46v-204h240v204q0 25 -12 46q-21 35 -70 35v21h323v-21q-49 0 -69 -35q-13 -21 -13 -46v-477q0 -25 13 -46
q20 -35 69 -35v-21h-323v21q49 0 70 35q12 21 12 46v224h-240zM449 -128q0 -26 -18 -44.5t-44 -18.5t-44 18.5t-18 44.5t18 44t44 18t44 -18t18 -44z" />
    <glyph glyph-name="idieresis" unicode="&#xef;" horiz-adv-x="778" 
d="M267 326v-224q0 -25 13 -46q20 -35 69 -35v-21h-323v21q49 0 70 35q12 21 12 46v477q0 25 -12 46q-21 35 -70 35v21h323v-21q-49 0 -69 -35q-13 -21 -13 -46v-204h240v204q0 25 -12 46q-21 35 -70 35v21h323v-21q-49 0 -69 -35q-13 -21 -13 -46v-477q0 -25 13 -46
q20 -35 69 -35v-21h-323v21q49 0 70 35q12 21 12 46v224h-240zM527 -74q1 -68 -39.5 -113t-101.5 -45q-62 0 -105 45.5t-42 112.5h47q4 -33 35 -55t66 -22q33 0 61 22t32 55h47z" />
    <glyph glyph-name="ntilde" unicode="&#xf1;" horiz-adv-x="778" 
d="M271 293v-191q0 -25 13 -46q20 -35 69 -35v-21h-323v21q49 0 70 35q12 21 12 46v477q0 25 -12 46q-21 35 -70 35v21h323v-21q-49 0 -69 -35q-13 -21 -13 -46v-228l231 234q17 17 17 33q0 12 -12 23q-20 19 -65 19v21h288v-21q-39 0 -59 -5t-52 -22t-68 -54l-146 -149
q77 -97 286 -359q15 -19 36 -39q17 -11 33 -11v-21h-338v21q52 0 68 18q6 7 6 14q0 8 -9 20l-190 247zM551 -85v-70h-319v70h319z" />
    <glyph glyph-name="oacute" unicode="&#xf3;" horiz-adv-x="722" 
d="M412 28q75 0 123 49q46 46 46 115v387q0 25 -12 46q-21 35 -70 35v21h203v-21q-49 0 -69 -35q-13 -21 -13 -46v-377q0 -91 -51 -147q-65 -72 -201 -72q-117 0 -191.5 59t-74.5 150v387q0 25 -12 46q-21 35 -70 35v21h323v-21q-49 0 -69 -35q-13 -21 -13 -46v-367
q0 -184 151 -184zM557 732l-59 2l-103 92l-104 -92l-57 -2l120 186h82z" />
    <glyph glyph-name="ograve" unicode="&#xf2;" horiz-adv-x="778" 
d="M271 293v-191q0 -25 13 -46q20 -35 69 -35v-21h-323v21q49 0 70 35q12 21 12 46v477q0 25 -12 46q-21 35 -70 35v21h323v-21q-49 0 -69 -35q-13 -21 -13 -46v-228l231 234q17 17 17 33q0 12 -12 23q-20 19 -65 19v21h288v-21q-39 0 -59 -5t-52 -22t-68 -54l-146 -149
q77 -97 286 -359q15 -19 36 -39q17 -11 33 -11v-21h-338v21q52 0 68 18q6 7 6 14q0 8 -9 20l-190 247zM555 918l-120 -186h-82l-119 187l56 -2l104 -93l103 93z" />
    <glyph glyph-name="ocircumflex" unicode="&#xf4;" horiz-adv-x="722" 
d="M412 28q75 0 123 49q46 46 46 115v387q0 25 -12 46q-21 35 -70 35v21h203v-21q-49 0 -69 -35q-13 -21 -13 -46v-377q0 -91 -51 -147q-65 -72 -201 -72q-117 0 -191.5 59t-74.5 150v387q0 25 -12 46q-21 35 -70 35v21h323v-21q-49 0 -69 -35q-13 -21 -13 -46v-367
q0 -184 151 -184zM549 888q1 -68 -39.5 -113t-101.5 -45q-62 0 -105 45.5t-42 112.5h47q4 -32 36 -50q28 -17 65 -17q35 0 62 17.5t31 49.5h47z" />
    <glyph glyph-name="odieresis" unicode="&#xf6;" horiz-adv-x="334" 
d="M122 601v-163q0 -30 26 -30v-13h-130v13q25 0 25 30v316q0 30 -25 30v13h104v-172q22 54 82 54q30 0 55 -19q30 -23 30 -60v-162q0 -30 25 -30v-13h-129v13q25 0 25 30v156q0 45 -35 45q-24 0 -53 -38z" />
    <glyph glyph-name="otilde" unicode="&#xf5;" horiz-adv-x="644" 
d="M420 369q82 -14 130.5 -60t48.5 -120q0 -87 -69.5 -138t-177.5 -51h-322v21q49 0 70 35q12 21 12 46v477q0 25 -12 46q-21 35 -70 35v21h312q227 0 227 -170q0 -116 -149 -142zM416 511q0 61 -14 91q-21 45 -76 45q-36 0 -45.5 -13t-9.5 -55v-204h56q89 0 89 136z
M436 189q0 56 -24 100q-30 55 -85 55h-56v-242q0 -42 9.5 -55t45.5 -13q56 0 86 54q24 43 24 101zM483 -85v-70h-319v70h319z" />
    <glyph glyph-name="uacute" unicode="&#xfa;" horiz-adv-x="556" 
d="M204 344v-272q0 -51 42 -51v-21h-216v21q42 0 42 51v526q0 51 -42 51v21h174v-286q35 90 136 90q50 0 92 -31q50 -38 50 -101v-270q0 -51 42 -51v-21h-216v21q42 0 42 51v260q0 75 -59 75q-43 0 -87 -63zM340 -128q0 -26 -18 -44.5t-44 -18.5t-44 18.5t-18 44.5t18 44
t44 18t44 -18t18 -44z" />
    <glyph glyph-name="ugrave" unicode="&#xf9;" horiz-adv-x="722" 
d="M373 -17q-141 6 -235 109t-94 245q0 146 99 250t245 104q56 0 101 -14q78 -24 98 -28q15 -3 25.5 11.5t19.5 29.5h23v-230h-23q-29 75 -75 126q-72 79 -169 79q-101 0 -147 -122q-31 -84 -31 -206q0 -129 34 -213q17 -42 54 -70q41 -30 90 -30q122 0 204 78q25 23 47 51
l29 -26q-19 -27 -34 -42q-94 -95 -230 -102l-13 -39q68 5 95 -32q12 -17 12 -39q0 -36 -33 -59.5t-99 -23.5q-61 0 -117 34l18 34q48 -24 95 -24q53 0 53 36q0 10 -6 21q-10 17 -66 18z" />
    <glyph glyph-name="ucircumflex" unicode="&#xfb;" horiz-adv-x="556" 
d="M204 205v-133q0 -51 42 -51v-21h-216v21q42 0 42 51v526q0 51 -42 51v21h174v-420l135 136q7 7 7 15q0 13 -16.5 24.5t-36.5 11.5v21h201v-21q-51 0 -86 -34l-93 -90l166 -241q35 -51 55 -51v-21h-231v21q40 0 40 29q0 11 -8 22l-109 157zM339 -128q0 -26 -18 -44.5
t-44 -18.5t-44 18.5t-18 44.5t18 44t44 18t44 -18t18 -44z" />
    <glyph glyph-name="udieresis" unicode="&#xfc;" horiz-adv-x="667" 
d="M617 236l-24 -236h-570l377 644h-110q-91 0 -142 -54q-34 -36 -59 -116h-21l10 207h516l-377 -643h135q122 0 164 36q48 41 84 162h17zM409 -128q0 -26 -18 -44.5t-44 -18.5t-44 18.5t-18 44.5t18 44t44 18t44 -18t18 -44z" />
    <glyph glyph-name="dagger" unicode="&#x2020;" horiz-adv-x="722" 
d="M412 28q75 0 123 49q46 46 46 115v387q0 25 -12 46q-21 35 -70 35v21h203v-21q-49 0 -69 -35q-13 -21 -13 -46v-377q0 -91 -51 -147q-65 -72 -201 -72q-117 0 -191.5 59t-74.5 150v387q0 25 -12 46q-21 35 -70 35v21h323v-21q-49 0 -69 -35q-13 -21 -13 -46v-367
q0 -184 151 -184zM537 817q0 -24 -17.5 -42.5t-40.5 -18.5q-24 0 -42 18.5t-18 42.5q0 25 17.5 41.5t42.5 16.5q24 0 41 -17t17 -41zM365 817q0 -24 -18 -42.5t-42 -18.5t-41.5 18.5t-17.5 42.5q0 25 17 41.5t42 16.5t42.5 -16.5t17.5 -41.5z" />
    <glyph glyph-name="degree" unicode="&#xb0;" horiz-adv-x="389" 
d="M359 670q0 -25 -25 -42q-35 -25 -85 -54q-67 -38 -88 -51l-66 -1q61 62 163 170q24 25 51 25q19 0 34.5 -13.5t15.5 -33.5zM367 120q0 -66 -49 -103q-45 -34 -115 -34q-24 0 -70 11.5t-65 11.5q-11 0 -18 -23h-15v166h15q19 -62 50.5 -97.5t82.5 -35.5q32 0 58 15
q31 19 31 52q0 34 -37 58q-6 4 -69 34q-70 33 -101 68q-34 40 -34 98q0 55 44.5 94t110.5 39q37 0 61.5 -7t48.5 -15q22 -6 31 22h15v-153h-15q-12 35 -17 47q-12 26 -27 41q-31 30 -80 30q-27 0 -48 -16q-24 -18 -24 -48q0 -34 35 -58q11 -8 73 -38q128 -62 128 -159z" />
    <glyph glyph-name="cent" unicode="&#xa2;" horiz-adv-x="389" 
d="M296 452q22 -6 31 22h15v-153h-15q-12 35 -17 47q-12 26 -27 41q-31 30 -80 30q-27 0 -48 -16q-24 -18 -24 -48q0 -34 35 -58q11 -8 73 -38q128 -62 128 -159q0 -66 -49 -103q-45 -34 -115 -34q-24 0 -70 11.5t-65 11.5q-11 0 -18 -23h-15v166h15q19 -62 50.5 -97.5
t82.5 -35.5q32 0 58 15q31 19 31 52q0 34 -37 58q-6 4 -69 34q-70 33 -101 68q-34 40 -34 98q0 55 44.5 94t110.5 39q37 0 61.5 -7t48.5 -15zM357 -85v-70h-319v70h319z" />
    <glyph glyph-name="sterling" unicode="&#xa3;" horiz-adv-x="389" 
d="M181 -15q-16 2 -59 12q-36 9 -54 9q-11 0 -18 -23h-15v166h15q19 -62 50.5 -97.5t82.5 -35.5q32 0 58 15q31 19 31 52q0 34 -37 58q-6 4 -69 34q-70 33 -101 68q-34 40 -34 98q0 55 44.5 94t110.5 39q37 0 61.5 -7t48.5 -15q22 -6 31 22h15v-153h-15q-12 35 -17 47
q-12 26 -27 41q-31 30 -80 30q-27 0 -48 -16q-24 -18 -24 -48q0 -34 35 -58q11 -8 73 -38q128 -62 128 -159q0 -64 -44.5 -99.5t-111.5 -37.5l-13 -39q68 5 95 -32q12 -17 12 -39q0 -36 -33 -59.5t-99 -23.5q-61 0 -117 34l18 34q48 -24 95 -24q53 0 53 36q0 10 -6 21
q-10 17 -66 18z" />
    <glyph glyph-name="section" unicode="&#xa7;" horiz-adv-x="389" 
d="M296 452q22 -6 31 22h15v-153h-15q-12 35 -17 47q-12 26 -27 41q-31 30 -80 30q-27 0 -48 -16q-24 -18 -24 -48q0 -34 35 -58q11 -8 73 -38q128 -62 128 -159q0 -66 -49 -103q-45 -34 -115 -34q-24 0 -70 11.5t-65 11.5q-11 0 -18 -23h-15v166h15q19 -62 50.5 -97.5
t82.5 -35.5q32 0 58 15q31 19 31 52q0 34 -37 58q-6 4 -69 34q-70 33 -101 68q-34 40 -34 98q0 55 44.5 94t110.5 39q37 0 61.5 -7t48.5 -15zM262 -126q0 -26 -18 -44.5t-44 -18.5t-44 18.5t-18 44.5t18 44t44 18t44 -18t18 -44z" />
    <glyph glyph-name="bullet" unicode="&#x2022;" horiz-adv-x="300" 
d="M151 679q60 0 97.5 -42.5t37.5 -104.5t-37.5 -104.5t-97.5 -42.5t-97.5 42.5t-37.5 104.5t37.5 104.5t97.5 42.5zM151 660q-31 0 -42 -37q-7 -26 -7 -91q0 -64 7 -90q11 -37 42 -37t42 37q7 26 7 90q0 65 -7 91q-11 37 -42 37z" />
    <glyph glyph-name="paragraph" unicode="&#xb6;" horiz-adv-x="590" 
d="M468 -143q0 -67 105 -67v-22h-176v914h-56v-914h-180v22q107 0 107 67v401h-37q-83 0 -141.5 68t-58.5 164q0 97 59.5 164.5t145.5 67.5h337v-22q-105 0 -105 -67v-776zM231 297h37v385h-37q-39 0 -77 -49q-44 -58 -44 -143t44 -143q38 -50 77 -50z" />
    <glyph glyph-name="germandbls" unicode="&#xdf;" horiz-adv-x="556" 
d="M417 649q14 -4 26 11q9 15 19 30h23v-220h-23q-30 79 -74 127q-32 35 -60.5 48t-71.5 13t-71.5 -27t-28.5 -73q0 -53 51 -89q17 -12 110 -54.5t136 -86.5q54 -56 54 -135q0 -98 -75 -156q-69 -54 -169 -54q-35 0 -89 16.5t-82 16.5q-14 0 -19 -11q-2 -3 -7 -23h-23v240
h23q27 -94 75 -146q34 -37 58.5 -50t63.5 -12q55 2 91 28q41 31 41 82q0 54 -49 89q-20 14 -108 55q-186 86 -186 224q0 82 57 141t137 59q57 0 99 -16q69 -26 72 -27zM418 727l-67 1q-55 31 -172 105q-25 17 -25 42q0 20 15.5 33.5t34.5 13.5q27 0 51 -25q49 -51 163 -170z
" />
    <glyph glyph-name="registered" unicode="&#xae;" horiz-adv-x="778" 
d="M664 36q-31 -21 -106 -37q-81 -16 -170 -16q-146 0 -245 104t-99 250t99 250t245 104q56 0 101 -14q78 -24 98 -28q15 -3 25.5 11.5t19.5 29.5h23v-230h-23q-29 75 -75 126q-72 79 -169 79q-101 0 -147 -122q-31 -84 -31 -206q0 -130 34 -213q47 -115 144 -115
q117 0 117 59v141q0 25 -12 46q-21 35 -70 35v21h323v-21q-49 0 -69 -35q-13 -21 -13 -46v-173zM553 -85v-70h-319v70h319z" />
    <glyph glyph-name="copyright" unicode="&#xa9;" 
d="M106 -40q-19 7 -38 30q-22 26 -22 52q0 41 33 70q22 20 75 44q-117 33 -117 153q0 165 205 165q72 0 125 -33h114v-43h-65q31 -39 31 -89q0 -165 -205 -165q-29 0 -52 4q-34 -22 -34 -46q0 -41 64 -41h38q153 0 197 -42q28 -27 28 -96q0 -57 -64.5 -96t-160.5 -39
q-225 0 -225 105q0 22 23 41.5t50 25.5zM262 -56h-107q-45 -25 -45 -52q0 -29 34 -49q40 -23 118 -23q75 0 117 28q35 24 35 54q0 33 -64 41q-12 1 -88 1zM242 441q-62 0 -62 -132t62 -132t62 132t-62 132zM400 618v-70h-319v70h319z" />
    <glyph glyph-name="trademark" unicode="&#x2122;" 
d="M252 474q99 0 162 -71t63 -174t-63 -174t-162 -71t-162 71t-63 174t63 174t162 71zM252 441q-52 0 -70 -62q-12 -43 -12 -150t12 -150q18 -62 70 -62t70 62q12 43 12 150t-12 150q-18 62 -70 62zM413 512l-59 2l-103 92l-104 -92l-57 -2l120 186h82z" />
    <glyph glyph-name="acute" unicode="&#xb4;" horiz-adv-x="556" 
d="M350 114v272q0 51 -42 51v21h174v-386q0 -51 42 -51v-21h-174v74q-35 -90 -136 -90q-50 0 -92 32q-50 37 -50 100v270q0 51 -42 51v21h174v-332q0 -75 59 -75q43 0 87 63zM427 612v-70h-319v70h319z" />
    <glyph glyph-name="dieresis" unicode="&#xa8;" horiz-adv-x="333" 
d="M204 459h92v-48h-92v-287q0 -51 2 -61q6 -25 29 -25q29 0 63 57l21 -13q-25 -49 -54 -71q-35 -27 -90 -27q-103 0 -103 106v321h-52v28l165 191h19v-171zM330 -85v-70h-319v70h319z" />
    <glyph glyph-name="AE" unicode="&#xc6;" horiz-adv-x="556" 
d="M204 344v-272q0 -51 42 -51v-21h-216v21q42 0 42 51v526q0 51 -42 51v21h174v-286q35 90 136 90q50 0 92 -31q50 -38 50 -101v-270q0 -51 42 -51v-21h-216v21q42 0 42 51v260q0 75 -59 75q-43 0 -87 -63zM417 -74q1 -68 -39.5 -113t-101.5 -45q-62 0 -105 45.5t-42 112.5
h47q4 -33 35 -55t66 -22q33 0 61 22t32 55h47z" />
    <glyph glyph-name="Oslash" unicode="&#xd8;" horiz-adv-x="300" 
d="M169 561v58q0 41 -50 41q-39 0 -39 -20q0 -6 7.5 -17.5t7.5 -19.5q0 -12 -11 -23.5t-25 -11.5q-15 0 -26 10.5t-11 24.5q0 34 31 55t73 21q55 0 88 -22q36 -25 36 -68v-143q0 -25 11 -25q10 0 19 7l6 -14q-39 -29 -74 -29q-36 0 -43 35q-38 -35 -83 -35q-69 0 -69 60
q0 55 63 84q39 18 89 32zM169 444v96q-68 -21 -68 -74q0 -15 8.5 -27.5t21.5 -12.5q20 0 38 18z" />
    <glyph glyph-name="plusminus" unicode="&#xb1;" horiz-adv-x="778" 
d="M664 36q-31 -21 -106 -37q-81 -16 -170 -16q-146 0 -245 104t-99 250t99 250t245 104q56 0 101 -14q78 -24 98 -28q15 -3 25.5 11.5t19.5 29.5h23v-230h-23q-29 75 -75 126q-72 79 -169 79q-101 0 -147 -122q-31 -84 -31 -206q0 -130 34 -213q47 -115 144 -115
q117 0 117 59v141q0 25 -12 46q-21 35 -70 35v21h323v-21q-49 0 -69 -35q-13 -21 -13 -46v-173zM549 918l-120 -186h-82l-119 187l56 -2l104 -93l103 93z" />
    <glyph glyph-name="yen" unicode="&#xa5;" horiz-adv-x="278" 
d="M204 72q0 -51 42 -51v-21h-216v21q42 0 42 51v314q0 51 -42 51v21h174v-386zM258 618v-70h-253v70h253z" />
    <glyph glyph-name="ordfeminine" unicode="&#xaa;" horiz-adv-x="389" 
d="M296 452q22 -6 31 22h15v-153h-15q-12 35 -17 47q-12 26 -27 41q-31 30 -80 30q-27 0 -48 -16q-24 -18 -24 -48q0 -34 35 -58q11 -8 73 -38q128 -62 128 -159q0 -66 -49 -103q-45 -34 -115 -34q-24 0 -70 11.5t-65 11.5q-11 0 -18 -23h-15v166h15q19 -62 50.5 -97.5
t82.5 -35.5q32 0 58 15q31 19 31 52q0 34 -37 58q-6 4 -69 34q-70 33 -101 68q-34 40 -34 98q0 55 44.5 94t110.5 39q37 0 61.5 -7t48.5 -15zM276 -152q0 -70 -117 -115l-15 36q46 20 51 23q25 15 25 33q0 3 -2 3t-29 -3q-58 7 -58 54q0 64 64 64q39 0 62 -31q19 -27 19 -64
z" />
    <glyph glyph-name="ordmasculine" unicode="&#xba;" horiz-adv-x="556" 
d="M218 411q54 63 113 63q91 0 144 -72q51 -68 51 -173q0 -108 -47 -173q-52 -72 -148 -72q-84 0 -153 52l-92 -53v615q0 51 -42 51v21h174v-259zM291 414q-47 0 -73 -59v-297q27 -31 73 -31q92 0 92 202q0 87 -24.5 136t-67.5 49zM450 -85v-70h-319v70h319z" />
    <glyph glyph-name="ae" unicode="&#xe6;" horiz-adv-x="667" 
d="M262 362q87 0 116 30q19 20 34 64q7 28 15 55h21v-335h-21q-8 27 -15 55q-15 44 -34 64q-29 30 -116 30v-223q0 -53 20 -65q15 -9 80 -9q89 0 151 48q55 43 97 130h27l-44 -206h-572v21q49 0 70 35q12 21 12 46v477q0 25 -12 46q-21 35 -70 35v21h565v-207h-21
q-8 27 -15 55q-15 44 -34 64q-51 54 -142 54h-57q-36 0 -45.5 -13t-9.5 -55v-217zM493 732l-59 2l-103 92l-104 -92l-57 -2l120 186h82z" />
    <glyph glyph-name="oslash" unicode="&#xf8;" horiz-adv-x="722" 
d="M557 586q-72 79 -169 79q-101 0 -147 -122q-31 -84 -31 -206q0 -129 34 -213q17 -42 54 -70q41 -30 90 -30q122 0 204 78q25 23 47 51l29 -26q-19 -27 -34 -42q-101 -102 -246 -102q-146 0 -245 104t-99 250t99 250t245 104q56 0 101 -14q78 -24 98 -28q15 -3 25.5 11.5
t19.5 29.5h23v-230h-23q-29 75 -75 126zM469 -152q0 -70 -117 -115l-15 36q46 20 51 23q25 15 25 33q0 3 -2 3t-29 -3q-58 7 -58 54q0 64 64 64q39 0 62 -31q19 -27 19 -64z" />
    <glyph glyph-name="questiondown" unicode="&#xbf;" 
d="M252 474q99 0 162 -71t63 -174t-63 -174t-162 -71t-162 71t-63 174t63 174t162 71zM252 441q-52 0 -70 -62q-12 -43 -12 -150t12 -150q18 -62 70 -62t70 62q12 43 12 150t-12 150q-18 62 -70 62zM412 618v-70h-319v70h319z" />
    <glyph glyph-name="exclamdown" unicode="&#xa1;" horiz-adv-x="389" 
d="M271 579v-477q0 -25 13 -46q20 -35 69 -35v-21h-323v21q49 0 70 35q12 21 12 46v477q0 25 -12 46q-21 35 -70 35v21h323v-21q-49 0 -69 -35q-13 -21 -13 -46zM349 835v-70h-319v70h319z" />
    <glyph glyph-name="logicalnot" unicode="&#xac;" horiz-adv-x="300" 
d="M142 389l-96 238q-4 8 -8 17q-9 13 -25 13v13h147v-13q-35 0 -35 -20q0 -5 2 -10l52 -131l51 131q2 6 2 10q0 20 -34 20v13h88v-13q-16 0 -25 -13q-4 -9 -8 -17l-113 -297q-21 -56 -76 -56q-21 0 -37 13t-16 32q0 16 11.5 28.5t26.5 12.5q34 0 34 -34q0 -9 -3 -14
q16 -7 30.5 6t31.5 71z" />
    <glyph glyph-name="florin" unicode="&#x192;" horiz-adv-x="667" 
d="M262 362q87 0 116 30q19 20 34 64q7 28 15 55h21v-335h-21q-8 27 -15 55q-15 44 -34 64q-29 30 -116 30v-223q0 -53 20 -65q15 -9 80 -9q89 0 151 48q55 43 97 130h27l-44 -206h-572v21q49 0 70 35q12 21 12 46v477q0 25 -12 46q-21 35 -70 35v21h565v-207h-21
q-8 27 -15 55q-15 44 -34 64q-51 54 -142 54h-57q-36 0 -45.5 -13t-9.5 -55v-217zM471 888q1 -68 -39.5 -113t-101.5 -45q-62 0 -105 45.5t-42 112.5h47q4 -32 36 -50q28 -17 65 -17q35 0 62 17.5t31 49.5h47z" />
    <glyph glyph-name="guillemotleft" unicode="&#xab;" horiz-adv-x="433" 
d="M225 572l-72 -177h-19l-94 232q-4 8 -8 17q-9 13 -25 13v13h147v-13q-35 0 -35 -20q0 -5 2 -10l52 -131l42 107l-7 24q-4 8 -8 17q-9 13 -25 13v13h147v-13q-41 0 -41 -19q0 -4 2 -11l37 -131l51 131q2 6 2 10q0 20 -34 20v13h88v-13q-16 0 -25 -13q-4 -9 -8 -17
l-94 -232h-19z" />
    <glyph glyph-name="guillemotright" unicode="&#xbb;" horiz-adv-x="278" 
d="M293 512l-59 2l-103 92l-104 -92l-57 -2l120 186h82zM246 0h-216v21q42 0 42 51v314q0 51 -42 51v21h174v-386q0 -51 42 -51v-21z" />
    <glyph glyph-name="ellipsis" unicode="&#x2026;" horiz-adv-x="778" 
d="M388 691q146 0 245 -104t99 -250t-99 -250t-245 -104t-245 104t-99 250t99 250t245 104zM388 665q-101 0 -147 -122q-31 -84 -31 -206q0 -128 34 -213q46 -115 144 -115t144 115q34 85 34 213q0 122 -31 206q-46 122 -147 122zM530 817q0 -24 -17.5 -42.5t-40.5 -18.5
q-24 0 -42 18.5t-18 42.5q0 25 17.5 41.5t42.5 16.5q24 0 41 -17t17 -41zM358 817q0 -24 -18 -42.5t-42 -18.5t-41.5 18.5t-17.5 42.5q0 25 17 41.5t42 16.5t42.5 -16.5t17.5 -41.5z" />
    <glyph glyph-name="uni00A0" unicode="&#xa0;" horiz-adv-x="250" 
 />
    <glyph glyph-name="Agrave" unicode="&#xc0;" horiz-adv-x="722" 
d="M185 196l-44 -113q-11 -29 5 -44q20 -18 82 -18v-21h-208v21q30 0 42 7q18 11 31 43l240 610h37l251 -610q13 -33 31 -43q12 -7 42 -7v-21h-333v21q63 0 83 18q16 15 5 44l-44 113h-220zM389 235q-25 66 -94 242l-95 -242h189zM442 802q0 -38 -26.5 -64.5t-64.5 -26.5
q-37 0 -64 26.5t-27 64.5t26.5 64.5t64.5 26.5t64.5 -26.5t26.5 -64.5zM400 802q0 21 -14 35t-35 14t-35 -14t-14 -35t14.5 -35t34.5 -14q21 0 35 14t14 35z" />
    <glyph glyph-name="Atilde" unicode="&#xc3;" 
d="M299 168l85 218q4 9 4 17q0 34 -58 34v21h147v-21q-27 0 -42 -22q-3 -4 -13 -29l-157 -386h-32l-157 386q-10 25 -13 29q-15 22 -42 22v21h245v-21q-58 0 -58 -33q0 -9 4 -18zM312 -138q0 -26 -18 -44.5t-44 -18.5t-44 18.5t-18 44.5t18 44t44 18t44 -18t18 -44z" />
    <glyph glyph-name="Otilde" unicode="&#xd5;" horiz-adv-x="333" 
d="M254 564q0 -70 -27 -111q-32 -48 -132 -111l-13 19q111 80 111 132q0 26 -26 26h-12q-7 -1 -12 -1q-26 0 -46 23t-20 55q0 38 23.5 61.5t56.5 23.5q38 0 64 -24q33 -31 33 -93z" />
    <glyph glyph-name="OE" unicode="&#x152;" 
d="M281 277v96q0 68 -82 68q-66 0 -66 -33q0 -9 12.5 -28.5t12.5 -32.5q0 -20 -18 -39t-42 -19q-25 0 -43.5 17.5t-18.5 40.5q0 56 54 93q50 34 120 34q92 0 147 -38q60 -40 60 -113v-238q0 -42 18 -42t32 12l9 -23q-64 -49 -123 -49q-61 0 -71 58q-64 -57 -138 -57
q-115 0 -115 100q0 90 105 140q52 25 147 53zM281 81v161q-49 -16 -80.5 -50t-31.5 -74q0 -25 14 -46t36 -21q32 0 62 30zM386 618v-70h-319v70h319z" />
    <glyph glyph-name="oe" unicode="&#x153;" horiz-adv-x="556" 
d="M350 114v272q0 51 -42 51v21h174v-386q0 -51 42 -51v-21h-174v74q-35 -90 -136 -90q-50 0 -92 32q-50 37 -50 100v270q0 51 -42 51v21h174v-332q0 -75 59 -75q43 0 87 63zM413 687q1 -68 -39.5 -113t-101.5 -45q-62 0 -105 45.5t-42 112.5h47q4 -32 36 -50q28 -17 65 -17
q35 0 62 17.5t31 49.5h47z" />
    <glyph glyph-name="endash" unicode="&#x2013;" 
d="M281 277v96q0 68 -82 68q-66 0 -66 -33q0 -9 12.5 -28.5t12.5 -32.5q0 -20 -18 -39t-42 -19q-25 0 -43.5 17.5t-18.5 40.5q0 56 54 93q50 34 120 34q92 0 147 -38q60 -40 60 -113v-238q0 -42 18 -42t32 12l9 -23q-64 -49 -123 -49q-61 0 -71 58q-64 -57 -138 -57
q-115 0 -115 100q0 90 105 140q52 25 147 53zM281 81v161q-49 -16 -80.5 -50t-31.5 -74q0 -25 14 -46t36 -21q32 0 62 30zM310 -128q0 -26 -18 -44.5t-44 -18.5t-44 18.5t-18 44.5t18 44t44 18t44 -18t18 -44z" />
    <glyph glyph-name="emdash" unicode="&#x2014;" 
d="M252 474q99 0 162 -71t63 -174t-63 -174t-162 -71t-162 71t-63 174t63 174t162 71zM252 441q-52 0 -70 -62q-12 -43 -12 -150t12 -150q18 -62 70 -62t70 62q12 43 12 150t-12 150q-18 62 -70 62zM394 687q1 -68 -39.5 -113t-101.5 -45q-62 0 -105 45.5t-42 112.5h47
q4 -32 36 -50q28 -17 65 -17q35 0 62 17.5t31 49.5h47z" />
    <glyph glyph-name="quotedblleft" unicode="&#x201c;" horiz-adv-x="556" 
d="M481 -267v-70h-879v70h879zM204 344v-272q0 -51 42 -51v-21h-216v21q42 0 42 51v526q0 51 -42 51v21h174v-286q35 90 136 90q50 0 92 -31q50 -38 50 -101v-270q0 -51 42 -51v-21h-216v21q42 0 42 51v260q0 75 -59 75q-43 0 -87 -63z" />
    <glyph glyph-name="quotedblright" unicode="&#x201d;" horiz-adv-x="778" 
d="M388 691q146 0 245 -104t99 -250t-99 -250t-245 -104t-245 104t-99 250t99 250t245 104zM388 665q-101 0 -147 -122q-31 -84 -31 -206q0 -128 34 -213q46 -115 144 -115t144 115q34 85 34 213q0 122 -31 206q-46 122 -147 122zM550 732l-59 2l-103 92l-104 -92l-57 -2
l120 186h82z" />
    <glyph glyph-name="quoteleft" unicode="&#x2018;" horiz-adv-x="300" 
d="M286 560v-26h-184v-2q0 -103 79 -103q39 0 66 25l10 -12q-39 -57 -96 -57q-61 0 -103 43t-42 104q0 59 42 103t93 44t93 -36t42 -83zM151 660q-22 0 -35.5 -28.5t-13.5 -71.5h98q0 44 -13.5 72t-35.5 28z" />
    <glyph glyph-name="quoteright" unicode="&#x2019;" horiz-adv-x="278" 
d="M272 687q1 -68 -39.5 -113t-101.5 -45q-62 0 -105 45.5t-42 112.5h47q4 -32 36 -50q28 -17 65 -17q35 0 62 17.5t31 49.5h47zM246 0h-216v21q42 0 42 51v314q0 51 -42 51v21h174v-386q0 -51 42 -51v-21z" />
    <glyph glyph-name="divide" unicode="&#xf7;" horiz-adv-x="722" 
d="M348 0h-331v21q49 0 70 35q12 21 12 46v477q0 25 -12 46q-21 35 -70 35v21h331q163 0 255 -100q80 -87 80 -221q0 -153 -90 -254q-94 -106 -245 -106zM313 34q76 0 115 33q88 72 88 293q0 196 -88 259q-38 28 -115 28q-36 0 -45.5 -13t-9.5 -55v-477q0 -42 9.5 -55
t45.5 -13zM495 835v-70h-319v70h319z" />
    <glyph glyph-name="ydieresis" unicode="&#xff;" horiz-adv-x="1" 
d="M-185 -128q0 -26 -18 -44.5t-44 -18.5t-44 18.5t-18 44.5t18 44t44 18t44 -18t18 -44z" />
    <glyph glyph-name="Ydieresis" unicode="&#x178;" horiz-adv-x="556" 
d="M350 114v272q0 51 -42 51v21h174v-386q0 -51 42 -51v-21h-174v74q-35 -90 -136 -90q-50 0 -92 32q-50 37 -50 100v270q0 51 -42 51v21h174v-332q0 -75 59 -75q43 0 87 63zM412 593q0 -24 -17.5 -42.5t-40.5 -18.5q-24 0 -42 18.5t-18 42.5q0 25 17.5 41.5t42.5 16.5
q24 0 41 -17t17 -41zM240 593q0 -24 -18 -42.5t-42 -18.5t-41.5 18.5t-17.5 42.5q0 25 17 41.5t42 16.5t42.5 -16.5t17.5 -41.5z" />
    <glyph glyph-name="currency" unicode="&#xa4;" horiz-adv-x="389" 
d="M296 452q22 -6 31 22h15v-153h-15q-12 35 -17 47q-12 26 -27 41q-31 30 -80 30q-27 0 -48 -16q-24 -18 -24 -48q0 -34 35 -58q11 -8 73 -38q128 -62 128 -159q0 -66 -49 -103q-45 -34 -115 -34q-24 0 -70 11.5t-65 11.5q-11 0 -18 -23h-15v166h15q19 -62 50.5 -97.5
t82.5 -35.5q32 0 58 15q31 19 31 52q0 34 -37 58q-6 4 -69 34q-70 33 -101 68q-34 40 -34 98q0 55 44.5 94t110.5 39q37 0 61.5 -7t48.5 -15zM305 522l-67 1q-55 31 -172 105q-25 17 -25 42q0 20 15.5 33.5t34.5 13.5q27 0 51 -25q49 -51 163 -170z" />
    <glyph glyph-name="guilsinglleft" unicode="&#x2039;" horiz-adv-x="333" 
d="M319 82q-25 -49 -54 -71q-35 -27 -90 -27q-103 0 -103 106v321h-52v28l165 191h19v-171h92v-48h-92v-287q0 -51 2 -61q6 -25 29 -25q29 0 63 57zM220 -128q0 -26 -18 -44.5t-44 -18.5t-44 18.5t-18 44.5t18 44t44 18t44 -18t18 -44z" />
    <glyph glyph-name="guilsinglright" unicode="&#x203a;" 
d="M477 275v-43h-307v-3q0 -85 36 -128.5t96 -43.5q67 0 109 42l17 -21q-64 -94 -159 -94q-101 0 -171.5 71.5t-70.5 173.5q0 99 70 172t155 73t155 -60.5t70 -138.5zM252 441q-36 0 -59 -47t-23 -119h164q0 72 -23 119t-59 47zM320 -128q0 -26 -18 -44.5t-44 -18.5
t-44 18.5t-18 44.5t18 44t44 18t44 -18t18 -44z" />
    <glyph glyph-name="daggerdbl" unicode="&#x2021;" 
d="M281 277v96q0 68 -82 68q-66 0 -66 -33q0 -9 12.5 -28.5t12.5 -32.5q0 -20 -18 -39t-42 -19q-25 0 -43.5 17.5t-18.5 40.5q0 56 54 93q50 34 120 34q92 0 147 -38q60 -40 60 -113v-238q0 -42 18 -42t32 12l9 -23q-64 -49 -123 -49q-61 0 -71 58q-64 -57 -138 -57
q-115 0 -115 100q0 90 105 140q52 25 147 53zM281 81v161q-49 -16 -80.5 -50t-31.5 -74q0 -25 14 -46t36 -21q32 0 62 30zM370 687q1 -68 -39.5 -113t-101.5 -45q-62 0 -105 45.5t-42 112.5h47q4 -32 36 -50q28 -17 65 -17q35 0 62 17.5t31 49.5h47z" />
    <glyph glyph-name="periodcentered" unicode="&#xb7;" horiz-adv-x="275" 
d="M115 426q27 0 45.5 -19t18.5 -45t-18.5 -45t-45.5 -19q-26 0 -44.5 19t-18.5 45t18.5 45t44.5 19z" />
    <glyph glyph-name="periodcentered" unicode="&#x2219;" horiz-adv-x="275" 
d="M115 426q27 0 45.5 -19t18.5 -45t-18.5 -45t-45.5 -19q-26 0 -44.5 19t-18.5 45t18.5 45t44.5 19z" />
    <glyph glyph-name="quotesinglbase" unicode="&#x201a;" horiz-adv-x="722" 
d="M557 586q-72 79 -169 79q-101 0 -147 -122q-31 -84 -31 -206q0 -129 34 -213q17 -42 54 -70q41 -30 90 -30q122 0 204 78q25 23 47 51l29 -26q-19 -27 -34 -42q-101 -102 -246 -102q-146 0 -245 104t-99 250t99 250t245 104q56 0 101 -14q78 -24 98 -28q15 -3 25.5 11.5
t19.5 29.5h23v-230h-23q-29 75 -75 126zM550 918l-120 -186h-82l-119 187l56 -2l104 -93l103 93z" />
    <glyph glyph-name="quotedblbase" unicode="&#x201e;" horiz-adv-x="722" 
d="M185 196l-44 -113q-11 -29 5 -44q20 -18 82 -18v-21h-208v21q30 0 42 7q18 11 31 43l240 610h37l251 -610q13 -33 31 -43q12 -7 42 -7v-21h-333v21q63 0 83 18q16 15 5 44l-44 113h-220zM389 235q-25 66 -94 242l-95 -242h189zM423 -130q0 -26 -18 -44.5t-44 -18.5
t-44 18.5t-18 44.5t18 44t44 18t44 -18t18 -44z" />
    <glyph glyph-name="perthousand" unicode="&#x2030;" 
d="M281 277v96q0 68 -82 68q-66 0 -66 -33q0 -9 12.5 -28.5t12.5 -32.5q0 -20 -18 -39t-42 -19q-25 0 -43.5 17.5t-18.5 40.5q0 56 54 93q50 34 120 34q92 0 147 -38q60 -40 60 -113v-238q0 -42 18 -42t32 12l9 -23q-64 -49 -123 -49q-61 0 -71 58q-64 -57 -138 -57
q-115 0 -115 100q0 90 105 140q52 25 147 53zM281 81v161q-49 -16 -80.5 -50t-31.5 -74q0 -25 14 -46t36 -21q32 0 62 30zM391 512l-59 2l-103 92l-104 -92l-57 -2l120 186h82z" />
    <glyph glyph-name="Acircumflex" unicode="&#xc2;" horiz-adv-x="556" 
d="M204 205v-133q0 -51 42 -51v-21h-216v21q42 0 42 51v526q0 51 -42 51v21h174v-420l135 136q7 7 7 15q0 13 -16.5 24.5t-36.5 11.5v21h201v-21q-51 0 -86 -34l-93 -90l166 -241q35 -51 55 -51v-21h-231v21q40 0 40 29q0 11 -8 22l-109 157zM437 -85v-70h-319v70h319z" />
    <glyph glyph-name="Ecircumflex" unicode="&#xca;" horiz-adv-x="50" 
 />
    <glyph glyph-name="Aacute" unicode="&#xc1;" horiz-adv-x="389" 
d="M351 698l-120 -186h-82l-119 187l56 -2l104 -93l103 93zM367 120q0 -66 -49 -103q-45 -34 -115 -34q-24 0 -70 11.5t-65 11.5q-11 0 -18 -23h-15v166h15q19 -62 50.5 -97.5t82.5 -35.5q32 0 58 15q31 19 31 52q0 34 -37 58q-6 4 -69 34q-70 33 -101 68q-34 40 -34 98
q0 55 44.5 94t110.5 39q37 0 61.5 -7t48.5 -15q22 -6 31 22h15v-153h-15q-12 35 -17 47q-12 26 -27 41q-31 30 -80 30q-27 0 -48 -16q-24 -18 -24 -48q0 -34 35 -58q11 -8 73 -38q128 -62 128 -159z" />
    <glyph glyph-name="Edieresis" unicode="&#xcb;" horiz-adv-x="722" 
d="M185 196l-44 -113q-11 -29 5 -44q20 -18 82 -18v-21h-208v21q30 0 42 7q18 11 31 43l240 610h37l251 -610q13 -33 31 -43q12 -7 42 -7v-21h-333v21q63 0 83 18q16 15 5 44l-44 113h-220zM389 235q-25 66 -94 242l-95 -242h189zM491 888q1 -68 -39.5 -113t-101.5 -45
q-62 0 -105 45.5t-42 112.5h47q4 -32 36 -50q28 -17 65 -17q35 0 62 17.5t31 49.5h47z" />
    <glyph glyph-name="Egrave" unicode="&#xc8;" horiz-adv-x="778" 
d="M664 36q-31 -21 -106 -37q-81 -16 -170 -16q-146 0 -245 104t-99 250t99 250t245 104q56 0 101 -14q78 -24 98 -28q15 -3 25.5 11.5t19.5 29.5h23v-230h-23q-29 75 -75 126q-72 79 -169 79q-101 0 -147 -122q-31 -84 -31 -206q0 -130 34 -213q47 -115 144 -115
q117 0 117 59v141q0 25 -12 46q-21 35 -70 35v21h323v-21q-49 0 -69 -35q-13 -21 -13 -46v-173zM525 885q0 -25 -25 -42q-35 -25 -85 -54q-67 -38 -88 -51l-67 -1q62 62 164 170q24 25 51 25q20 0 35 -13.5t15 -33.5z" />
    <glyph glyph-name="Iacute" unicode="&#xcd;" horiz-adv-x="667" 
d="M262 362q87 0 116 30q19 20 34 64q7 28 15 55h21v-335h-21q-8 27 -15 55q-15 44 -34 64q-29 30 -116 30v-223q0 -53 20 -65q15 -9 80 -9q89 0 151 48q55 43 97 130h27l-44 -206h-572v21q49 0 70 35q12 21 12 46v477q0 25 -12 46q-21 35 -70 35v21h565v-207h-21
q-8 27 -15 55q-15 44 -34 64q-51 54 -142 54h-57q-36 0 -45.5 -13t-9.5 -55v-217zM395 -128q0 -26 -18 -44.5t-44 -18.5t-44 18.5t-18 44.5t18 44t44 18t44 -18t18 -44z" />
    <glyph glyph-name="Icircumflex" unicode="&#xce;" horiz-adv-x="1" 
d="M-223 865q0 -25 -25 -42q-35 -25 -85 -54q-67 -38 -88 -51l-67 -1q62 62 164 170q24 25 51 25q20 0 35 -13.5t15 -33.5z" />
    <glyph glyph-name="Idieresis" unicode="&#xcf;" horiz-adv-x="1" 
d="M-129 670q0 -25 -25 -42q-35 -25 -85 -54q-67 -38 -88 -51l-66 -1q61 62 163 170q24 25 51 25q19 0 34.5 -13.5t15.5 -33.5z" />
    <glyph glyph-name="Igrave" unicode="&#xcc;" horiz-adv-x="722" 
d="M185 196l-44 -113q-11 -29 5 -44q20 -18 82 -18v-21h-208v21q30 0 42 7q18 11 31 43l240 610h37l251 -610q13 -33 31 -43q12 -7 42 -7v-21h-333v21q63 0 83 18q16 15 5 44l-44 113h-220zM389 235q-25 66 -94 242l-95 -242h189zM511 712l-59 2l-103 92l-104 -92l-57 -2
l120 186h82z" />
    <glyph glyph-name="Oacute" unicode="&#xd3;" 
d="M474 564q0 -70 -27 -111q-32 -48 -132 -111l-13 19q111 80 111 132q0 26 -26 26h-12q-7 -1 -12 -1q-26 0 -46 23t-20 55q0 38 23.5 61.5t56.5 23.5q38 0 64 -24q33 -31 33 -93zM209 564q0 -70 -27 -111q-32 -48 -132 -111l-13 19q111 80 111 132q0 26 -26 26h-12
q-7 -1 -12 -1q-26 0 -46 23t-20 55q0 38 23.5 61.5t56.5 23.5q38 0 64 -24q33 -31 33 -93z" />
    <glyph glyph-name="Ocircumflex" unicode="&#xd4;" horiz-adv-x="333" 
d="M250 430q0 -38 -23.5 -61.5t-56.5 -23.5q-38 0 -64 24q-33 31 -33 93q0 70 27 111q32 48 132 111l13 -19q-111 -80 -111 -132q0 -26 26 -26q6 0 12 1h12q26 0 46 -23t20 -55z" />
    <glyph glyph-name="Ograve" unicode="&#xd2;" 
d="M478 430q0 -38 -23.5 -61.5t-56.5 -23.5q-38 0 -64 24q-33 31 -33 93q0 70 27 111q32 48 132 111l13 -19q-111 -80 -111 -132q0 -26 26 -26q6 0 12 1h12q26 0 46 -23t20 -55zM211 430q0 -38 -23.5 -61.5t-56.5 -23.5q-38 0 -64 24q-33 31 -33 93q0 70 27 111
q32 48 132 111l13 -19q-111 -80 -111 -132q0 -26 26 -26q6 0 12 1h12q26 0 46 -23t20 -55z" />
    <glyph glyph-name="Uacute" unicode="&#xda;" horiz-adv-x="556" 
d="M421 918l-120 -186h-82l-119 187l56 -2l104 -93l103 93zM507 193q0 -98 -75 -156q-69 -54 -169 -54q-35 0 -89 16.5t-82 16.5q-14 0 -19 -11q-2 -3 -7 -23h-23v240h23q27 -94 75 -146q34 -37 58.5 -50t63.5 -12q55 2 91 28q41 31 41 82q0 54 -49 89q-20 14 -108 55
q-186 86 -186 224q0 82 57 141t137 59q57 0 99 -16q69 -26 72 -27q14 -4 26 11q9 15 19 30h23v-220h-23q-30 79 -74 127q-32 35 -60.5 48t-71.5 13t-71.5 -27t-28.5 -73q0 -53 51 -89q17 -12 110 -54.5t136 -86.5q54 -56 54 -135z" />
    <glyph glyph-name="Ucircumflex" unicode="&#xdb;" horiz-adv-x="556" 
d="M417 649q14 -4 26 11q9 15 19 30h23v-220h-23q-30 79 -74 127q-32 35 -60.5 48t-71.5 13t-71.5 -27t-28.5 -73q0 -53 51 -89q17 -12 110 -54.5t136 -86.5q54 -56 54 -135q0 -98 -75 -156q-69 -54 -169 -54q-35 0 -89 16.5t-82 16.5q-14 0 -19 -11q-2 -3 -7 -23h-23v240
h23q27 -94 75 -146q34 -37 58.5 -50t63.5 -12q55 2 91 28q41 31 41 82q0 54 -49 89q-20 14 -108 55q-186 86 -186 224q0 82 57 141t137 59q57 0 99 -16q69 -26 72 -27zM349 -152q0 -70 -117 -115l-15 36q46 20 51 23q25 15 25 33q0 3 -2 3t-29 -3q-58 7 -58 54q0 64 64 64
q39 0 62 -31q19 -27 19 -64z" />
    <glyph glyph-name="Ugrave" unicode="&#xd9;" 
d="M477 275v-43h-307v-3q0 -85 36 -128.5t96 -43.5q67 0 109 42l17 -21q-64 -94 -159 -94q-101 0 -171.5 71.5t-70.5 173.5q0 99 70 172t155 73t155 -60.5t70 -138.5zM252 441q-36 0 -59 -47t-23 -119h164q0 72 -23 119t-59 47zM414 618v-70h-319v70h319z" />
    <glyph glyph-name="circumflex" unicode="&#x2c6;" horiz-adv-x="300" 
d="M169 561v58q0 41 -50 41q-39 0 -39 -20q0 -6 7.5 -17.5t7.5 -19.5q0 -12 -11 -23.5t-25 -11.5q-15 0 -26 10.5t-11 24.5q0 34 31 55t73 21q55 0 88 -22q36 -25 36 -68v-143q0 -25 11 -25q10 0 19 7l6 -14q-39 -29 -74 -29q-36 0 -43 35q-38 -35 -83 -35q-69 0 -69 60
q0 55 63 84q39 18 89 32zM169 444v96q-68 -21 -68 -74q0 -15 8.5 -27.5t21.5 -12.5q20 0 38 18zM58 794h17q2 -17 22 -28.5t44 -11.5q23 0 41.5 11.5t19.5 28.5h17q1 -34 -22 -58.5t-56 -24.5q-35 0 -59.5 24.5t-23.5 58.5z" />
    <glyph glyph-name="tilde" unicode="&#x2dc;" horiz-adv-x="300" 
d="M151 679q60 0 97.5 -42.5t37.5 -104.5t-37.5 -104.5t-97.5 -42.5t-97.5 42.5t-37.5 104.5t37.5 104.5t97.5 42.5zM151 660q-31 0 -42 -37q-7 -26 -7 -91q0 -64 7 -90q11 -37 42 -37t42 37q7 26 7 90q0 65 -7 91q-11 37 -42 37zM68 794h17q2 -17 22 -28.5t44 -11.5
q23 0 41.5 11.5t19.5 28.5h17q1 -34 -22 -58.5t-56 -24.5q-35 0 -59.5 24.5t-23.5 58.5z" />
    <glyph glyph-name="macron" unicode="&#xaf;" horiz-adv-x="778" 
d="M388 691q146 0 245 -104t99 -250t-99 -250t-245 -104t-245 104t-99 250t99 250t245 104zM388 665q-101 0 -147 -122q-31 -84 -31 -206q0 -128 34 -213q46 -115 144 -115t144 115q34 85 34 213q0 122 -31 206q-46 122 -147 122zM543 835v-70h-319v70h319z" />
    <glyph glyph-name="macron" unicode="&#x2c9;" horiz-adv-x="778" 
d="M388 691q146 0 245 -104t99 -250t-99 -250t-245 -104t-245 104t-99 250t99 250t245 104zM388 665q-101 0 -147 -122q-31 -84 -31 -206q0 -128 34 -213q46 -115 144 -115t144 115q34 85 34 213q0 122 -31 206q-46 122 -147 122zM543 835v-70h-319v70h319z" />
    <glyph glyph-name="cedilla" unicode="&#xb8;" horiz-adv-x="611" 
d="M271 306v-204q0 -25 13 -46q20 -35 69 -35v-21h-323v21q49 0 70 35q12 21 12 46v477q0 25 -12 46q-21 35 -70 35v21h322q108 0 177.5 -51t69.5 -138q0 -88 -71 -138q-67 -48 -176 -48h-81zM436 492q0 58 -24 101q-30 54 -86 54q-36 0 -45.5 -13t-9.5 -55v-242h56
q55 0 85 55q24 44 24 100zM351 -85v-70h-319v70h319z" />
    <glyph glyph-name="Scaron" unicode="&#x160;" 
d="M281 277v96q0 68 -82 68q-66 0 -66 -33q0 -9 12.5 -28.5t12.5 -32.5q0 -20 -18 -39t-42 -19q-25 0 -43.5 17.5t-18.5 40.5q0 56 54 93q50 34 120 34q92 0 147 -38q60 -40 60 -113v-238q0 -42 18 -42t32 12l9 -23q-64 -49 -123 -49q-61 0 -71 58q-64 -57 -138 -57
q-115 0 -115 100q0 90 105 140q52 25 147 53zM281 81v161q-49 -16 -80.5 -50t-31.5 -74q0 -25 14 -46t36 -21q32 0 62 30zM374 593q0 -24 -17.5 -42.5t-40.5 -18.5q-24 0 -42 18.5t-18 42.5q0 25 17.5 41.5t42.5 16.5q24 0 41 -17t17 -41zM202 593q0 -24 -18 -42.5
t-42 -18.5t-41.5 18.5t-17.5 42.5q0 25 17 41.5t42 16.5t42.5 -16.5t17.5 -41.5z" />
    <glyph glyph-name="scaron" unicode="&#x161;" 
d="M252 474q99 0 162 -71t63 -174t-63 -174t-162 -71t-162 71t-63 174t63 174t162 71zM252 441q-52 0 -70 -62q-12 -43 -12 -150t12 -150q18 -62 70 -62t70 62q12 43 12 150t-12 150q-18 62 -70 62zM396 593q0 -24 -17.5 -42.5t-40.5 -18.5q-24 0 -42 18.5t-18 42.5
q0 25 17.5 41.5t42.5 16.5q24 0 41 -17t17 -41zM224 593q0 -24 -18 -42.5t-42 -18.5t-41.5 18.5t-17.5 42.5q0 25 17 41.5t42 16.5t42.5 -16.5t17.5 -41.5z" />
    <glyph glyph-name="Zcaron" unicode="&#x17d;" 
d="M477 275v-43h-307v-3q0 -85 36 -128.5t96 -43.5q67 0 109 42l17 -21q-64 -94 -159 -94q-101 0 -171.5 71.5t-70.5 173.5q0 99 70 172t155 73t155 -60.5t70 -138.5zM252 441q-36 0 -59 -47t-23 -119h164q0 72 -23 119t-59 47zM393 687q1 -68 -39.5 -113t-101.5 -45
q-62 0 -105 45.5t-42 112.5h47q4 -32 36 -50q28 -17 65 -17q35 0 62 17.5t31 49.5h47z" />
    <glyph glyph-name="zcaron" unicode="&#x17e;" horiz-adv-x="556" 
d="M350 114v272q0 51 -42 51v21h174v-386q0 -51 42 -51v-21h-174v74q-35 -90 -136 -90q-50 0 -92 32q-50 37 -50 100v270q0 51 -42 51v21h174v-332q0 -75 59 -75q43 0 87 63zM428 512l-59 2l-103 92l-104 -92l-57 -2l120 186h82z" />
    <glyph glyph-name="brokenbar" unicode="&#xa6;" horiz-adv-x="278" 
d="M204 72q0 -51 42 -51v-21h-216v21q42 0 42 51v314q0 51 -42 51v21h174v-386z" />
    <glyph glyph-name="Eth" unicode="&#xd0;" horiz-adv-x="278" 
d="M204 72q0 -51 42 -51v-21h-216v21q42 0 42 51v314q0 51 -42 51v21h174v-386zM279 593q0 -24 -17.5 -42.5t-40.5 -18.5q-24 0 -42 18.5t-18 42.5q0 25 17.5 41.5t42.5 16.5q24 0 41 -17t17 -41zM107 593q0 -24 -18 -42.5t-42 -18.5t-41.5 18.5t-17.5 42.5q0 25 17 41.5
t42 16.5t42.5 -16.5t17.5 -41.5z" />
    <glyph glyph-name="eth" unicode="&#xf0;" horiz-adv-x="778" 
d="M271 293v-191q0 -25 13 -46q20 -35 69 -35v-21h-323v21q49 0 70 35q12 21 12 46v477q0 25 -12 46q-21 35 -70 35v21h323v-21q-49 0 -69 -35q-13 -21 -13 -46v-228l231 234q17 17 17 33q0 12 -12 23q-20 19 -65 19v21h288v-21q-39 0 -59 -5t-52 -22t-68 -54l-146 -149
q77 -97 286 -359q15 -19 36 -39q17 -11 33 -11v-21h-338v21q52 0 68 18q6 7 6 14q0 8 -9 20l-190 247zM450 -128q0 -26 -18 -44.5t-44 -18.5t-44 18.5t-18 44.5t18 44t44 18t44 -18t18 -44z" />
    <glyph glyph-name="Yacute" unicode="&#xdd;" horiz-adv-x="556" 
d="M417 649q14 -4 26 11q9 15 19 30h23v-220h-23q-30 79 -74 127q-32 35 -60.5 48t-71.5 13t-71.5 -27t-28.5 -73q0 -53 51 -89q17 -12 110 -54.5t136 -86.5q54 -56 54 -135q0 -98 -75 -156q-69 -54 -169 -54q-35 0 -89 16.5t-82 16.5q-14 0 -19 -11q-2 -3 -7 -23h-23v240
h23q27 -94 75 -146q34 -37 58.5 -50t63.5 -12q55 2 91 28q41 31 41 82q0 54 -49 89q-20 14 -108 55q-186 86 -186 224q0 82 57 141t137 59q57 0 99 -16q69 -26 72 -27zM424 -85v-70h-319v70h319z" />
    <glyph glyph-name="yacute" unicode="&#xfd;" horiz-adv-x="778" 
d="M664 36q-31 -21 -106 -37q-81 -16 -170 -16q-146 0 -245 104t-99 250t99 250t245 104q56 0 101 -14q78 -24 98 -28q15 -3 25.5 11.5t19.5 29.5h23v-230h-23q-29 75 -75 126q-72 79 -169 79q-101 0 -147 -122q-31 -84 -31 -206q0 -130 34 -213q47 -115 144 -115
q117 0 117 59v141q0 25 -12 46q-21 35 -70 35v21h323v-21q-49 0 -69 -35q-13 -21 -13 -46v-173zM554 835v-70h-319v70h319z" />
    <glyph glyph-name="Thorn" unicode="&#xde;" horiz-adv-x="556" 
d="M417 649q14 -4 26 11q9 15 19 30h23v-220h-23q-30 79 -74 127q-32 35 -60.5 48t-71.5 13t-71.5 -27t-28.5 -73q0 -53 51 -89q17 -12 110 -54.5t136 -86.5q54 -56 54 -135q0 -98 -75 -156q-69 -54 -169 -54q-35 0 -89 16.5t-82 16.5q-14 0 -19 -11q-2 -3 -7 -23h-23v240
h23q27 -94 75 -146q34 -37 58.5 -50t63.5 -12q55 2 91 28q41 31 41 82q0 54 -49 89q-20 14 -108 55q-186 86 -186 224q0 82 57 141t137 59q57 0 99 -16q69 -26 72 -27zM428 885q0 -25 -25 -42q-35 -25 -85 -54q-67 -38 -88 -51l-67 -1q62 62 164 170q24 25 51 25
q20 0 35 -13.5t15 -33.5z" />
    <glyph glyph-name="thorn" unicode="&#xfe;" horiz-adv-x="667" 
d="M617 236l-24 -236h-570l377 644h-110q-91 0 -142 -54q-34 -36 -59 -116h-21l10 207h516l-377 -643h135q122 0 164 36q48 41 84 162h17zM504 918l-120 -186h-82l-119 187l56 -2l104 -93l103 93z" />
    <glyph glyph-name="uni00AD" unicode="&#xad;" 
d="M106 -40q-19 7 -38 30q-22 26 -22 52q0 41 33 70q22 20 75 44q-117 33 -117 153q0 165 205 165q72 0 125 -33h114v-43h-65q31 -39 31 -89q0 -165 -205 -165q-29 0 -52 4q-34 -22 -34 -46q0 -41 64 -41h38q153 0 197 -42q28 -27 28 -96q0 -57 -64.5 -96t-160.5 -39
q-225 0 -225 105q0 22 23 41.5t50 25.5zM262 -56h-107q-45 -25 -45 -52q0 -29 34 -49q40 -23 118 -23q75 0 117 28q35 24 35 54q0 33 -64 41q-12 1 -88 1zM242 441q-62 0 -62 -132t62 -132t62 132t-62 132zM404 698l-120 -186h-82l-119 187l56 -2l104 -93l103 93z" />
    <glyph glyph-name="uni00AD" unicode="&#x2212;" 
d="M106 -40q-19 7 -38 30q-22 26 -22 52q0 41 33 70q22 20 75 44q-117 33 -117 153q0 165 205 165q72 0 125 -33h114v-43h-65q31 -39 31 -89q0 -165 -205 -165q-29 0 -52 4q-34 -22 -34 -46q0 -41 64 -41h38q153 0 197 -42q28 -27 28 -96q0 -57 -64.5 -96t-160.5 -39
q-225 0 -225 105q0 22 23 41.5t50 25.5zM262 -56h-107q-45 -25 -45 -52q0 -29 34 -49q40 -23 118 -23q75 0 117 28q35 24 35 54q0 33 -64 41q-12 1 -88 1zM242 441q-62 0 -62 -132t62 -132t62 132t-62 132zM404 698l-120 -186h-82l-119 187l56 -2l104 -93l103 93z" />
    <glyph glyph-name="multiply" unicode="&#xd7;" horiz-adv-x="722" 
d="M344 0l-251 610q-13 33 -31 43q-12 7 -42 7v21h333v-21q-63 0 -83 -18q-16 -15 -5 -44l154 -394l154 394q11 29 -5 44q-20 18 -82 18v21h208v-21q-30 0 -42 -7q-18 -11 -31 -43l-240 -610h-37zM426 -138q0 -26 -18 -44.5t-44 -18.5t-44 18.5t-18 44.5t18 44t44 18t44 -18
t18 -44z" />
    <glyph glyph-name="uni00B9" unicode="&#xb9;" horiz-adv-x="556" 
d="M36 -212v21q42 0 42 51v526q0 51 -42 51v21h174v-59q54 75 113 75q96 0 148 -72q47 -65 47 -173q0 -105 -51 -173q-53 -72 -144 -72q-59 0 -113 63v-187q0 -51 42 -51v-21h-216zM283 44q43 0 67.5 49t24.5 136q0 94 -16 135q-18 47 -66 47q-52 0 -83 -66v-242
q26 -59 73 -59zM300 -267v-70h-319v70h319z" />
    <glyph glyph-name="uni00B2" unicode="&#xb2;" horiz-adv-x="444" 
d="M252 441q-52 0 -69 -62q-13 -44 -13 -150q0 -85 36 -128.5t96 -43.5q67 0 109 42l17 -21q-64 -94 -176 -94q-99 0 -162 71t-63 174q0 102 65 173.5t160 71.5q64 0 111 -29q52 -33 52 -88q0 -23 -18.5 -40.5t-43.5 -17.5q-24 0 -42 19t-18 39q0 46 -2 54q-7 30 -39 30z
M325 -152q0 -70 -117 -115l-15 36q46 20 51 23q25 15 25 33q0 3 -2 3t-29 -3q-58 7 -58 54q0 64 64 64q39 0 62 -31q19 -27 19 -64z" />
    <glyph glyph-name="uni00B3" unicode="&#xb3;" horiz-adv-x="444" 
d="M237 -16q-94 7 -152 76.5t-58 168.5q0 102 65 173.5t160 71.5q64 0 111 -29q52 -33 52 -88q0 -23 -18.5 -40.5t-43.5 -17.5q-24 0 -42 19t-18 39q0 46 -2 54q-7 30 -39 30q-52 0 -69 -62q-13 -44 -13 -150q0 -85 36 -128.5t96 -43.5q67 0 109 42l17 -21q-60 -86 -160 -93
l-14 -41q68 5 95 -32q12 -17 12 -39q0 -36 -33 -59.5t-99 -23.5q-61 0 -117 34l18 34q48 -24 95 -24q53 0 53 36q0 10 -6 21q-10 17 -66 18z" />
    <glyph glyph-name="onehalf" unicode="&#xbd;" horiz-adv-x="444" 
d="M406 458v-25l-226 -401h78q62 0 99 39q28 30 43 92h17l-10 -163h-387v21l229 405h-55q-62 0 -99 -39q-24 -26 -33 -62h-17l10 133h351zM278 -128q0 -26 -18 -44.5t-44 -18.5t-44 18.5t-18 44.5t18 44t44 18t44 -18t18 -44z" />
    <glyph glyph-name="onequarter" unicode="&#xbc;" horiz-adv-x="556" 
d="M36 -212v21q42 0 42 51v526q0 51 -42 51v21h174v-59q54 75 113 75q96 0 148 -72q47 -65 47 -173q0 -105 -51 -173q-53 -72 -144 -72q-59 0 -113 63v-187q0 -51 42 -51v-21h-216zM283 44q43 0 67.5 49t24.5 136q0 94 -16 135q-18 47 -66 47q-52 0 -83 -66v-242
q26 -59 73 -59zM428 618v-70h-319v70h319z" />
    <glyph glyph-name="threequarters" unicode="&#xbe;" 
d="M106 -40q-19 7 -38 30q-22 26 -22 52q0 41 33 70q22 20 75 44q-117 33 -117 153q0 165 205 165q72 0 125 -33h114v-43h-65q31 -39 31 -89q0 -165 -205 -165q-29 0 -52 4q-34 -22 -34 -46q0 -41 64 -41h38q153 0 197 -42q28 -27 28 -96q0 -57 -64.5 -96t-160.5 -39
q-225 0 -225 105q0 22 23 41.5t50 25.5zM262 -56h-107q-45 -25 -45 -52q0 -29 34 -49q40 -23 118 -23q75 0 117 28q35 24 35 54q0 33 -64 41q-12 1 -88 1zM242 441q-62 0 -62 -132t62 -132t62 132t-62 132zM420 -267v-70h-319v70h319z" />
    <glyph glyph-name="uni0080" horiz-adv-x="722" 
d="M185 196l-44 -113q-11 -29 5 -44q20 -18 82 -18v-21h-208v21q30 0 42 7q18 11 31 43l240 610h37l251 -610q13 -33 31 -43q12 -7 42 -7v-21h-333v21q63 0 83 18q16 15 5 44l-44 113h-220zM389 235q-25 66 -94 242l-95 -242h189zM494 817q0 -24 -17.5 -42.5t-40.5 -18.5
q-24 0 -42 18.5t-18 42.5q0 25 17.5 41.5t42.5 16.5q24 0 41 -17t17 -41zM322 817q0 -24 -18 -42.5t-42 -18.5t-41.5 18.5t-17.5 42.5q0 25 17 41.5t42 16.5t42.5 -16.5t17.5 -41.5z" />
    <glyph glyph-name="uni0081" horiz-adv-x="722" 
d="M185 196l-44 -113q-11 -29 5 -44q20 -18 82 -18v-21h-208v21q30 0 42 7q18 11 31 43l240 610h37l251 -610q13 -33 31 -43q12 -7 42 -7v-21h-333v21q63 0 83 18q16 15 5 44l-44 113h-220zM389 235q-25 66 -94 242l-95 -242h189zM511 835v-70h-319v70h319z" />
    <glyph glyph-name="glyph221" horiz-adv-x="722" 
d="M557 586q-72 79 -169 79q-101 0 -147 -122q-31 -84 -31 -206q0 -129 34 -213q17 -42 54 -70q41 -30 90 -30q122 0 204 78q25 23 47 51l29 -26q-19 -27 -34 -42q-101 -102 -246 -102q-146 0 -245 104t-99 250t99 250t245 104q56 0 101 -14q78 -24 98 -28q15 -3 25.5 11.5
t19.5 29.5h23v-230h-23q-29 75 -75 126zM550 918l-120 -186h-82l-119 187l56 -2l104 -93l103 93z" />
    <glyph glyph-name="glyph222" horiz-adv-x="667" 
d="M262 362q87 0 116 30q19 20 34 64q7 28 15 55h21v-335h-21q-8 27 -15 55q-15 44 -34 64q-29 30 -116 30v-223q0 -53 20 -65q15 -9 80 -9q89 0 151 48q55 43 97 130h27l-44 -206h-572v21q49 0 70 35q12 21 12 46v477q0 25 -12 46q-21 35 -70 35v21h565v-207h-21
q-8 27 -15 55q-15 44 -34 64q-51 54 -142 54h-57q-36 0 -45.5 -13t-9.5 -55v-217zM471 888q1 -68 -39.5 -113t-101.5 -45q-62 0 -105 45.5t-42 112.5h47q4 -32 36 -50q28 -17 65 -17q35 0 62 17.5t31 49.5h47z" />
    <glyph glyph-name="glyph223" horiz-adv-x="722" 
d="M185 196l-44 -113q-11 -29 5 -44q20 -18 82 -18v-21h-208v21q30 0 42 7q18 11 31 43l240 610h37l251 -610q13 -33 31 -43q12 -7 42 -7v-21h-333v21q63 0 83 18q16 15 5 44l-44 113h-220zM389 235q-25 66 -94 242l-95 -242h189zM423 -130q0 -26 -18 -44.5t-44 -18.5
t-44 18.5t-18 44.5t18 44t44 18t44 -18t18 -44z" />
    <glyph glyph-name="glyph224" horiz-adv-x="778" 
d="M388 691q146 0 245 -104t99 -250t-99 -250t-245 -104t-245 104t-99 250t99 250t245 104zM388 665q-101 0 -147 -122q-31 -84 -31 -206q0 -128 34 -213q46 -115 144 -115t144 115q34 85 34 213q0 122 -31 206q-46 122 -147 122zM530 817q0 -24 -17.5 -42.5t-40.5 -18.5
q-24 0 -42 18.5t-18 42.5q0 25 17.5 41.5t42.5 16.5q24 0 41 -17t17 -41zM358 817q0 -24 -18 -42.5t-42 -18.5t-41.5 18.5t-17.5 42.5q0 25 17 41.5t42 16.5t42.5 -16.5t17.5 -41.5z" />
    <glyph glyph-name="glyph225" horiz-adv-x="722" 
d="M412 28q75 0 123 49q46 46 46 115v387q0 25 -12 46q-21 35 -70 35v21h203v-21q-49 0 -69 -35q-13 -21 -13 -46v-377q0 -91 -51 -147q-65 -72 -201 -72q-117 0 -191.5 59t-74.5 150v387q0 25 -12 46q-21 35 -70 35v21h323v-21q-49 0 -69 -35q-13 -21 -13 -46v-367
q0 -184 151 -184zM537 817q0 -24 -17.5 -42.5t-40.5 -18.5q-24 0 -42 18.5t-18 42.5q0 25 17.5 41.5t42.5 16.5q24 0 41 -17t17 -41zM365 817q0 -24 -18 -42.5t-42 -18.5t-41.5 18.5t-17.5 42.5q0 25 17 41.5t42 16.5t42.5 -16.5t17.5 -41.5z" />
    <glyph glyph-name="glyph226" 
d="M281 277v96q0 68 -82 68q-66 0 -66 -33q0 -9 12.5 -28.5t12.5 -32.5q0 -20 -18 -39t-42 -19q-25 0 -43.5 17.5t-18.5 40.5q0 56 54 93q50 34 120 34q92 0 147 -38q60 -40 60 -113v-238q0 -42 18 -42t32 12l9 -23q-64 -49 -123 -49q-61 0 -71 58q-64 -57 -138 -57
q-115 0 -115 100q0 90 105 140q52 25 147 53zM281 81v161q-49 -16 -80.5 -50t-31.5 -74q0 -25 14 -46t36 -21q32 0 62 30zM370 687q1 -68 -39.5 -113t-101.5 -45q-62 0 -105 45.5t-42 112.5h47q4 -32 36 -50q28 -17 65 -17q35 0 62 17.5t31 49.5h47z" />
    <glyph glyph-name="glyph227" 
d="M281 277v96q0 68 -82 68q-66 0 -66 -33q0 -9 12.5 -28.5t12.5 -32.5q0 -20 -18 -39t-42 -19q-25 0 -43.5 17.5t-18.5 40.5q0 56 54 93q50 34 120 34q92 0 147 -38q60 -40 60 -113v-238q0 -42 18 -42t32 12l9 -23q-64 -49 -123 -49q-61 0 -71 58q-64 -57 -138 -57
q-115 0 -115 100q0 90 105 140q52 25 147 53zM281 81v161q-49 -16 -80.5 -50t-31.5 -74q0 -25 14 -46t36 -21q32 0 62 30zM391 512l-59 2l-103 92l-104 -92l-57 -2l120 186h82z" />
    <glyph glyph-name="glyph228" 
d="M281 277v96q0 68 -82 68q-66 0 -66 -33q0 -9 12.5 -28.5t12.5 -32.5q0 -20 -18 -39t-42 -19q-25 0 -43.5 17.5t-18.5 40.5q0 56 54 93q50 34 120 34q92 0 147 -38q60 -40 60 -113v-238q0 -42 18 -42t32 12l9 -23q-64 -49 -123 -49q-61 0 -71 58q-64 -57 -138 -57
q-115 0 -115 100q0 90 105 140q52 25 147 53zM281 81v161q-49 -16 -80.5 -50t-31.5 -74q0 -25 14 -46t36 -21q32 0 62 30zM374 593q0 -24 -17.5 -42.5t-40.5 -18.5q-24 0 -42 18.5t-18 42.5q0 25 17.5 41.5t42.5 16.5q24 0 41 -17t17 -41zM202 593q0 -24 -18 -42.5
t-42 -18.5t-41.5 18.5t-17.5 42.5q0 25 17 41.5t42 16.5t42.5 -16.5t17.5 -41.5z" />
    <glyph glyph-name="glyph229" horiz-adv-x="333" 
d="M319 82q-25 -49 -54 -71q-35 -27 -90 -27q-103 0 -103 106v321h-52v28l165 191h19v-171h92v-48h-92v-287q0 -51 2 -61q6 -25 29 -25q29 0 63 57zM220 -128q0 -26 -18 -44.5t-44 -18.5t-44 18.5t-18 44.5t18 44t44 18t44 -18t18 -44z" />
    <glyph glyph-name="glyph230" 
d="M281 277v96q0 68 -82 68q-66 0 -66 -33q0 -9 12.5 -28.5t12.5 -32.5q0 -20 -18 -39t-42 -19q-25 0 -43.5 17.5t-18.5 40.5q0 56 54 93q50 34 120 34q92 0 147 -38q60 -40 60 -113v-238q0 -42 18 -42t32 12l9 -23q-64 -49 -123 -49q-61 0 -71 58q-64 -57 -138 -57
q-115 0 -115 100q0 90 105 140q52 25 147 53zM281 81v161q-49 -16 -80.5 -50t-31.5 -74q0 -25 14 -46t36 -21q32 0 62 30zM386 618v-70h-319v70h319z" />
    <glyph glyph-name="uni008D" horiz-adv-x="444" 
d="M252 441q-52 0 -69 -62q-13 -44 -13 -150q0 -85 36 -128.5t96 -43.5q67 0 109 42l17 -21q-64 -94 -176 -94q-99 0 -162 71t-63 174q0 102 65 173.5t160 71.5q64 0 111 -29q52 -33 52 -88q0 -23 -18.5 -40.5t-43.5 -17.5q-24 0 -42 19t-18 39q0 46 -2 54q-7 30 -39 30z
M413 698l-120 -186h-82l-119 187l56 -2l104 -93l103 93z" />
    <glyph glyph-name="uni008E" 
d="M477 275v-43h-307v-3q0 -85 36 -128.5t96 -43.5q67 0 109 42l17 -21q-64 -94 -159 -94q-101 0 -171.5 71.5t-70.5 173.5q0 99 70 172t155 73t155 -60.5t70 -138.5zM252 441q-36 0 -59 -47t-23 -119h164q0 72 -23 119t-59 47zM393 687q1 -68 -39.5 -113t-101.5 -45
q-62 0 -105 45.5t-42 112.5h47q4 -32 36 -50q28 -17 65 -17q35 0 62 17.5t31 49.5h47z" />
    <glyph glyph-name="uni008F" 
d="M477 275v-43h-307v-3q0 -85 36 -128.5t96 -43.5q67 0 109 42l17 -21q-64 -94 -159 -94q-101 0 -171.5 71.5t-70.5 173.5q0 99 70 172t155 73t155 -60.5t70 -138.5zM252 441q-36 0 -59 -47t-23 -119h164q0 72 -23 119t-59 47zM393 522l-67 1q-55 31 -172 105
q-25 17 -25 42q0 20 15.5 33.5t34.5 13.5q27 0 51 -25q49 -51 163 -170z" />
    <glyph glyph-name="uni0090" 
d="M477 275v-43h-307v-3q0 -85 36 -128.5t96 -43.5q67 0 109 42l17 -21q-64 -94 -159 -94q-101 0 -171.5 71.5t-70.5 173.5q0 99 70 172t155 73t155 -60.5t70 -138.5zM252 441q-36 0 -59 -47t-23 -119h164q0 72 -23 119t-59 47zM412 512l-59 2l-103 92l-104 -92l-57 -2
l120 186h82z" />
    <glyph glyph-name="glyph235" horiz-adv-x="300" 
d="M286 560v-26h-184v-2q0 -103 79 -103q39 0 66 25l10 -12q-39 -57 -96 -57q-61 0 -103 43t-42 104q0 59 42 103t93 44t93 -36t42 -83zM151 660q-22 0 -35.5 -28.5t-13.5 -71.5h98q0 44 -13.5 72t-35.5 28z" />
    <glyph glyph-name="glyph236" horiz-adv-x="278" 
d="M272 687q1 -68 -39.5 -113t-101.5 -45q-62 0 -105 45.5t-42 112.5h47q4 -32 36 -50q28 -17 65 -17q35 0 62 17.5t31 49.5h47zM246 0h-216v21q42 0 42 51v314q0 51 -42 51v21h174v-386q0 -51 42 -51v-21z" />
    <glyph glyph-name="glyph237" horiz-adv-x="556" 
d="M481 -267v-70h-879v70h879zM204 344v-272q0 -51 42 -51v-21h-216v21q42 0 42 51v526q0 51 -42 51v21h174v-286q35 90 136 90q50 0 92 -31q50 -38 50 -101v-270q0 -51 42 -51v-21h-216v21q42 0 42 51v260q0 75 -59 75q-43 0 -87 -63z" />
    <glyph glyph-name="glyph238" horiz-adv-x="778" 
d="M388 691q146 0 245 -104t99 -250t-99 -250t-245 -104t-245 104t-99 250t99 250t245 104zM388 665q-101 0 -147 -122q-31 -84 -31 -206q0 -128 34 -213q46 -115 144 -115t144 115q34 85 34 213q0 122 -31 206q-46 122 -147 122zM550 732l-59 2l-103 92l-104 -92l-57 -2
l120 186h82z" />
    <glyph glyph-name="glyph239" horiz-adv-x="300" 
d="M151 679q60 0 97.5 -42.5t37.5 -104.5t-37.5 -104.5t-97.5 -42.5t-97.5 42.5t-37.5 104.5t37.5 104.5t97.5 42.5zM151 660q-31 0 -42 -37q-7 -26 -7 -91q0 -64 7 -90q11 -37 42 -37t42 37q7 26 7 90q0 65 -7 91q-11 37 -42 37z" />
    <glyph glyph-name="glyph240" 
d="M281 277v96q0 68 -82 68q-66 0 -66 -33q0 -9 12.5 -28.5t12.5 -32.5q0 -20 -18 -39t-42 -19q-25 0 -43.5 17.5t-18.5 40.5q0 56 54 93q50 34 120 34q92 0 147 -38q60 -40 60 -113v-238q0 -42 18 -42t32 12l9 -23q-64 -49 -123 -49q-61 0 -71 58q-64 -57 -138 -57
q-115 0 -115 100q0 90 105 140q52 25 147 53zM281 81v161q-49 -16 -80.5 -50t-31.5 -74q0 -25 14 -46t36 -21q32 0 62 30zM310 -128q0 -26 -18 -44.5t-44 -18.5t-44 18.5t-18 44.5t18 44t44 18t44 -18t18 -44z" />
    <glyph glyph-name="glyph241" 
d="M252 474q99 0 162 -71t63 -174t-63 -174t-162 -71t-162 71t-63 174t63 174t162 71zM252 441q-52 0 -70 -62q-12 -43 -12 -150t12 -150q18 -62 70 -62t70 62q12 43 12 150t-12 150q-18 62 -70 62zM394 687q1 -68 -39.5 -113t-101.5 -45q-62 0 -105 45.5t-42 112.5h47
q4 -32 36 -50q28 -17 65 -17q35 0 62 17.5t31 49.5h47z" />
    <glyph glyph-name="glyph242" horiz-adv-x="300" 
d="M151 679q60 0 97.5 -42.5t37.5 -104.5t-37.5 -104.5t-97.5 -42.5t-97.5 42.5t-37.5 104.5t37.5 104.5t97.5 42.5zM151 660q-31 0 -42 -37q-7 -26 -7 -91q0 -64 7 -90q11 -37 42 -37t42 37q7 26 7 90q0 65 -7 91q-11 37 -42 37zM68 794h17q2 -17 22 -28.5t44 -11.5
q23 0 41.5 11.5t19.5 28.5h17q1 -34 -22 -58.5t-56 -24.5q-35 0 -59.5 24.5t-23.5 58.5z" />
    <glyph glyph-name="glyph243" 
d="M252 474q99 0 162 -71t63 -174t-63 -174t-162 -71t-162 71t-63 174t63 174t162 71zM252 441q-52 0 -70 -62q-12 -43 -12 -150t12 -150q18 -62 70 -62t70 62q12 43 12 150t-12 150q-18 62 -70 62zM413 512l-59 2l-103 92l-104 -92l-57 -2l120 186h82z" />
    <glyph glyph-name="glyph244" 
d="M252 474q99 0 162 -71t63 -174t-63 -174t-162 -71t-162 71t-63 174t63 174t162 71zM252 441q-52 0 -70 -62q-12 -43 -12 -150t12 -150q18 -62 70 -62t70 62q12 43 12 150t-12 150q-18 62 -70 62zM396 593q0 -24 -17.5 -42.5t-40.5 -18.5q-24 0 -42 18.5t-18 42.5
q0 25 17.5 41.5t42.5 16.5q24 0 41 -17t17 -41zM224 593q0 -24 -18 -42.5t-42 -18.5t-41.5 18.5t-17.5 42.5q0 25 17 41.5t42 16.5t42.5 -16.5t17.5 -41.5z" />
    <glyph glyph-name="glyph245" 
d="M477 275v-43h-307v-3q0 -85 36 -128.5t96 -43.5q67 0 109 42l17 -21q-64 -94 -159 -94q-101 0 -171.5 71.5t-70.5 173.5q0 99 70 172t155 73t155 -60.5t70 -138.5zM252 441q-36 0 -59 -47t-23 -119h164q0 72 -23 119t-59 47zM320 -128q0 -26 -18 -44.5t-44 -18.5
t-44 18.5t-18 44.5t18 44t44 18t44 -18t18 -44z" />
    <glyph glyph-name="glyph246" horiz-adv-x="556" 
d="M350 114v272q0 51 -42 51v21h174v-386q0 -51 42 -51v-21h-174v74q-35 -90 -136 -90q-50 0 -92 32q-50 37 -50 100v270q0 51 -42 51v21h174v-332q0 -75 59 -75q43 0 87 63zM413 687q1 -68 -39.5 -113t-101.5 -45q-62 0 -105 45.5t-42 112.5h47q4 -32 36 -50q28 -17 65 -17
q35 0 62 17.5t31 49.5h47z" />
    <glyph glyph-name="uni009D" horiz-adv-x="778" 
d="M388 691q146 0 245 -104t99 -250t-99 -250t-245 -104t-245 104t-99 250t99 250t245 104zM388 665q-101 0 -147 -122q-31 -84 -31 -206q0 -128 34 -213q46 -115 144 -115t144 115q34 85 34 213q0 122 -31 206q-46 122 -147 122zM529 888q1 -68 -39.5 -113t-101.5 -45
q-62 0 -105 45.5t-42 112.5h47q4 -32 36 -50q28 -17 65 -17q35 0 62 17.5t31 49.5h47z" />
    <glyph glyph-name="uni009E" horiz-adv-x="556" 
d="M350 114v272q0 51 -42 51v21h174v-386q0 -51 42 -51v-21h-174v74q-35 -90 -136 -90q-50 0 -92 32q-50 37 -50 100v270q0 51 -42 51v21h174v-332q0 -75 59 -75q43 0 87 63zM428 512l-59 2l-103 92l-104 -92l-57 -2l120 186h82z" />
    <glyph glyph-name="glyph249" horiz-adv-x="556" 
d="M350 114v272q0 51 -42 51v21h174v-386q0 -51 42 -51v-21h-174v74q-35 -90 -136 -90q-50 0 -92 32q-50 37 -50 100v270q0 51 -42 51v21h174v-332q0 -75 59 -75q43 0 87 63zM412 593q0 -24 -17.5 -42.5t-40.5 -18.5q-24 0 -42 18.5t-18 42.5q0 25 17.5 41.5t42.5 16.5
q24 0 41 -17t17 -41zM240 593q0 -24 -18 -42.5t-42 -18.5t-41.5 18.5t-17.5 42.5q0 25 17 41.5t42 16.5t42.5 -16.5t17.5 -41.5z" />
    <glyph glyph-name="uni00B5" unicode="&#xb5;" horiz-adv-x="433" 
d="M235 474q61 0 107 -27t46 -69q0 -54 -52 -54q-37 0 -48 46q-17 71 -66 71q-72 0 -72 -104q0 -77 64 -77q8 0 27.5 2.5t29.5 2.5q48 0 48 -29q0 -32 -49 -32q-10 0 -27 4t-28 4q-65 0 -65 -85q0 -101 107 -101q93 0 124 84l24 -5q-8 -63 -63 -94q-46 -27 -115 -27
q-84 0 -137 30q-63 36 -63 106q0 45 26 76t70 41q-84 25 -84 102q0 66 61 103q54 32 135 32z" />
    <glyph glyph-name="uni00B5" unicode="&#x3bc;" horiz-adv-x="433" 
d="M235 474q61 0 107 -27t46 -69q0 -54 -52 -54q-37 0 -48 46q-17 71 -66 71q-72 0 -72 -104q0 -77 64 -77q8 0 27.5 2.5t29.5 2.5q48 0 48 -29q0 -32 -49 -32q-10 0 -27 4t-28 4q-65 0 -65 -85q0 -101 107 -101q93 0 124 84l24 -5q-8 -63 -63 -94q-46 -27 -115 -27
q-84 0 -137 30q-63 36 -63 106q0 45 26 76t70 41q-84 25 -84 102q0 66 61 103q54 32 135 32z" />
    <glyph glyph-name="Euro" unicode="&#x20ac;" horiz-adv-x="722" 
d="M185 196l-44 -113q-11 -29 5 -44q20 -18 82 -18v-21h-208v21q30 0 42 7q18 11 31 43l240 610h37l251 -610q13 -33 31 -43q12 -7 42 -7v-21h-333v21q63 0 83 18q16 15 5 44l-44 113h-220zM389 235q-25 66 -94 242l-95 -242h189zM494 817q0 -24 -17.5 -42.5t-40.5 -18.5
q-24 0 -42 18.5t-18 42.5q0 25 17.5 41.5t42.5 16.5q24 0 41 -17t17 -41zM322 817q0 -24 -18 -42.5t-42 -18.5t-41.5 18.5t-17.5 42.5q0 25 17 41.5t42 16.5t42.5 -16.5t17.5 -41.5z" />
    <glyph glyph-name="uniE000" unicode="&#xe000;" horiz-adv-x="722" 
d="M185 196l-44 -113q-11 -29 5 -44q20 -18 82 -18v-21h-208v21q30 0 42 7q18 11 31 43l240 610h37l251 -610q13 -33 31 -43q12 -7 42 -7v-21h-333v21q63 0 83 18q16 15 5 44l-44 113h-220zM389 235q-25 66 -94 242l-95 -242h189zM511 835v-70h-319v70h319z" />
    <glyph glyph-name="uni0206" unicode="&#x206;" horiz-adv-x="300" 
d="M169 561v58q0 41 -50 41q-39 0 -39 -20q0 -6 7.5 -17.5t7.5 -19.5q0 -12 -11 -23.5t-25 -11.5q-15 0 -26 10.5t-11 24.5q0 34 31 55t73 21q55 0 88 -22q36 -25 36 -68v-143q0 -25 11 -25q10 0 19 7l6 -14q-39 -29 -74 -29q-36 0 -43 35q-38 -35 -83 -35q-69 0 -69 60
q0 55 63 84q39 18 89 32zM169 444v96q-68 -21 -68 -74q0 -15 8.5 -27.5t21.5 -12.5q20 0 38 18zM58 794h17q2 -17 22 -28.5t44 -11.5q23 0 41.5 11.5t19.5 28.5h17q1 -34 -22 -58.5t-56 -24.5q-35 0 -59.5 24.5t-23.5 58.5z" />
    <glyph glyph-name="uniE001" unicode="&#xe001;" horiz-adv-x="444" 
d="M252 441q-52 0 -69 -62q-13 -44 -13 -150q0 -85 36 -128.5t96 -43.5q67 0 109 42l17 -21q-64 -94 -176 -94q-99 0 -162 71t-63 174q0 102 65 173.5t160 71.5q64 0 111 -29q52 -33 52 -88q0 -23 -18.5 -40.5t-43.5 -17.5q-24 0 -42 19t-18 39q0 46 -2 54q-7 30 -39 30z
M413 698l-120 -186h-82l-119 187l56 -2l104 -93l103 93z" />
    <glyph glyph-name="uniE002" unicode="&#xe002;" 
d="M477 275v-43h-307v-3q0 -85 36 -128.5t96 -43.5q67 0 109 42l17 -21q-64 -94 -159 -94q-101 0 -171.5 71.5t-70.5 173.5q0 99 70 172t155 73t155 -60.5t70 -138.5zM252 441q-36 0 -59 -47t-23 -119h164q0 72 -23 119t-59 47zM393 522l-67 1q-55 31 -172 105
q-25 17 -25 42q0 20 15.5 33.5t34.5 13.5q27 0 51 -25q49 -51 163 -170z" />
    <glyph glyph-name="uniE003" unicode="&#xe003;" 
d="M477 275v-43h-307v-3q0 -85 36 -128.5t96 -43.5q67 0 109 42l17 -21q-64 -94 -159 -94q-101 0 -171.5 71.5t-70.5 173.5q0 99 70 172t155 73t155 -60.5t70 -138.5zM252 441q-36 0 -59 -47t-23 -119h164q0 72 -23 119t-59 47zM412 512l-59 2l-103 92l-104 -92l-57 -2
l120 186h82z" />
    <glyph glyph-name="uniE004" unicode="&#xe004;" horiz-adv-x="778" 
d="M388 691q146 0 245 -104t99 -250t-99 -250t-245 -104t-245 104t-99 250t99 250t245 104zM388 665q-101 0 -147 -122q-31 -84 -31 -206q0 -128 34 -213q46 -115 144 -115t144 115q34 85 34 213q0 122 -31 206q-46 122 -147 122zM529 888q1 -68 -39.5 -113t-101.5 -45
q-62 0 -105 45.5t-42 112.5h47q4 -32 36 -50q28 -17 65 -17q35 0 62 17.5t31 49.5h47z" />
  </font>
</defs>
</svg>
